<?xml version="1.0" encoding="utf-8"?>
<!-- Generator: Adobe Illustrator 26.1.0, SVG Export Plug-In . SVG Version: 6.00 Build 0)  -->
<svg version="1.1" xmlns="http://www.w3.org/2000/svg" xmlns:xlink="http://www.w3.org/1999/xlink" x="0px" y="0px"
	 viewBox="0 0 595.1 230.1" style="enable-background:new 0 0 595.1 230.1;" xml:space="preserve">
<style type="text/css">
	.st0{clip-path:url(#SVGID_00000134971115660045563830000003579273979553556892_);}
	.st1{fill:url(#path3956_00000026123564794819090160000002448807621205590447_);}
	.st2{clip-path:url(#SVGID_00000078742489923749725890000016010884655566813317_);}
	.st3{fill-rule:evenodd;clip-rule:evenodd;fill:#B61D3E;}
	.st4{clip-path:url(#SVGID_00000129913641863075452150000010209734147798530202_);}
	.st5{fill-rule:evenodd;clip-rule:evenodd;fill:url(#path3982_00000030446168999653343780000010668421586780010381_);}
</style>
<g id="Layer_1">
</g>
<g id="Ebene_1">
	<g>
		<g id="g3942" transform="translate(-4540.0244,-13208.103)">
			<g>
				<defs>
					<circle id="SVGID_1_" cx="4836.2" cy="13269.9" r="56.8"/>
				</defs>
				<clipPath id="SVGID_00000142170830880885280280000017035663533111153572_">
					<use xlink:href="#SVGID_1_"  style="overflow:visible;"/>
				</clipPath>
				<g id="g3944" style="clip-path:url(#SVGID_00000142170830880885280280000017035663533111153572_);">
					
						<radialGradient id="path3956_00000183963292246509408650000009022203074019645113_" cx="8924.3525" cy="484.2047" r="33.385" gradientTransform="matrix(3.8225 0 0 3.8225 -29252.3223 11382.2939)" gradientUnits="userSpaceOnUse">
						<stop  offset="0" style="stop-color:#FBF2F0"/>
						<stop  offset="1" style="stop-color:#D27D7F"/>
					</radialGradient>
					<path id="path3956" style="fill:url(#path3956_00000183963292246509408650000009022203074019645113_);" d="M4779.4,13269.9
						c0-31.4,25.4-56.8,56.8-56.8c31.4,0,56.8,25.4,56.8,56.8c0,31.4-25.4,56.8-56.8,56.8
						C4804.9,13326.8,4779.4,13301.3,4779.4,13269.9z"/>
				</g>
			</g>
		</g>
		<g id="g3958" transform="translate(-4540.0244,-13208.103)">
			<g>
				<defs>
					<circle id="SVGID_00000183235995059430369310000012270552338645729444_" cx="4836.2" cy="13269.9" r="56.8"/>
				</defs>
				<clipPath id="SVGID_00000081638387018077916460000012512602640646467996_">
					<use xlink:href="#SVGID_00000183235995059430369310000012270552338645729444_"  style="overflow:visible;"/>
				</clipPath>
				<g id="g3960" style="clip-path:url(#SVGID_00000081638387018077916460000012512602640646467996_);">
					<path id="path3966" class="st3" d="M4897.1,13293.7l-5,3.6l-1.9,5.9l1.7,0.5l-0.4,2.2l2.9-0.4l4.6-10.9L4897.1,13293.7
						L4897.1,13293.7z M4850.2,13250.3l-1.1,1.4l-6.4-0.1l-2.4,1.9l-0.1,2.4l-8.1,6.1l0.3,4.9l-2.1,2.9l5.5,6.7l3.5,0.1l0.4,2.2
						l11.5-2.1l1.5,2l4.6,0.4l1.5,3.3l-1.1,1.3l0.2,2l2,0.8l1.6,6.9l-2.4,2.6v2l2.3,2l3.8,10.3l-0.6,2.3l2.2,1.9l4.7-1.4l1.6,0.7
						l5.1-3.1l4.4-5.9l0.3-5.4l5.1-1.9l1.8-5.9l-2.4-3.6l10-9.5l2.5-6.4l-0.7-1.3l-7.9,1.9l-4.8-4.4l0.6-1.4l-6.6-8.4l0.4-1
						l-0.9-1.7l-12.3-2.6l-0.2,2.1l-2.4,0.5l-3.5-2.4l-2.9-0.5l0.2-2.8L4850.2,13250.3L4850.2,13250.3z M4863.5,13225.6l-2.8,0.1
						l-3.3,3.8l-3.2,1l0.4,2.9l3.9-0.7l1,3l4.3-2.8l-1.2-2l3.8-3.3l1.4,0.6l-2.8,2.5l1.6,2.1l3.4-1.7l0.8,1.2l-7.4,3.6l-6.1,0.5
						l-10.8,4.5l2.5,2.4l-0.8,1.3l-5.8-0.2l-1,4.4l5,1.2l3.5-1.3l-0.5-2.1l3.7-0.7l-0.5-2l5.1,0.7l4.7,2.9l-0.6,2.8l3.7-2.7l-5-3.3
						l1-1.1l5.6,4.4l0.3,2.2l3.8,2.2l1.8-0.7l-2.6-1.1l0.7-1.3l-1.7-1.3l2.5-1.1l1.5,1.6l-0.9,0.8l3,2.5l4.3-1.3l1.7,1l-0.6,4
						l9.6,11.2l-0.2,2.4l2.5,2.6l8.6-4.5l1.8,0.3l2.6-5.7l-4.6-1.7l-2.8,0.6l-4.8-4.3l1.1-0.6l6,3.7l12.4,0.7l0.4,2.9l3.9,1.7l0.1-2
						h1.1l3.6,7.6l1.8,0.5l-0.4,2.2l2.2,2.2l1.2-0.8l1.7,3l2.9-0.9l-3.2-2.7l-0.4-5.9l5.7-4.6l-1.5-1.8l7.7,2l0.8,4.8l2.9,2.8h2.2
						l2.7,8.1l4.6,1.5v-3.1l-4.6-2.9l-0.4-4.3h2.1l3.1,4.3l3.7-4l-6.3-6.5l2-2.9l2.2,1.9l5.7-3.2l0.5-5l-8.6-8.3l1.8-0.6l5.4,4.3
						l3.3-0.9l-1.2-2.7l2.1-2.6l-3.9-1.5l-3.5,1.4l-0.2-1.5l2.8-0.4l-4.8-6.7l-7.1-2.8l-0.2,1.3l-3.5-3.6l4.4-1l1,1.5l1.9-1.9
						l-2.5-1l4.1-1.2l4.6,6.5l2.6-0.1l4.3,2.6l1.4-1.1l-5.7-5.1l-1,0.8l-2.9-1.8l3.3-0.5l-0.7-4.8l-14.8-1.4l-1.6,1.1l-18-1.6
						l-16.7,1l0.5-1.5l-6.5-0.3l-0.6,1.2l-3.5-0.3l-1.1,1.7l-7,0.3l-0.5,1.5l-9.1,2.1l-1.3-1.3l-0.9,0.6l0.1,1.3l-2.9,1.9l-3-2.2
						l3.8,0.2l0.6-1l-8.1-1.5L4863.5,13225.6L4863.5,13225.6z M4847.7,13232.8v4.4c0,0-3,1.8-2.5,1.9c0.5,0.1,5.4-0.3,5.4-0.3
						l-1.2-5.7L4847.7,13232.8L4847.7,13232.8z M4844.8,13235.1l-2.4,2l2.6,1l1.5-1.6L4844.8,13235.1L4844.8,13235.1z
						 M4795.5,13261.2l-3.6,2.6l3.8,0.2l2.5-1.8L4795.5,13261.2L4795.5,13261.2z M4784.2,13258.6h3.6l4.8,2l-2.6,2L4784.2,13258.6
						L4784.2,13258.6z M4822.7,13236l-3.9,2.3l3.2,2.1l2.8-2.9L4822.7,13236z M4823.7,13219.5l6.9,2.7l-0.2,3.3l-5.8,1.8l-4.4-2.4
						l5.1-2.3l-4.3-2.1L4823.7,13219.5L4823.7,13219.5z M4858.3,13225.2l-5.5-0.9l-1.1,0.9l4.6,2.8L4858.3,13225.2z M4829.2,13216.2
						l-1.1,2.1l10.6,1.1l-4.6,5.6l2.8,4.6l6.1-5.1l2.6,1.3l15.3-7l-1-2.2h-9.8l-2.5,1.5L4829.2,13216.2L4829.2,13216.2z
						 M4816.3,13221.4l-10.6,1.7l-5.7-4.1l-5.9,2.5l-4.7-3.2l-15.5,2.3l1.2,1.9l-1.3,0.7l-2.6-1.2l-5.7,2.2l0.2,2.2l-8.3,1.4
						l1.1,1.9l9.2-2.1l7.3-3.4l5,2.5l-1.5,1.8l-2.1-0.7l-4.3,8l-2.8,0.1l-7.7,5.2l-1.5,9.2l0.4,8.7h1.9l-0.7-7.4l1.6-1.6l2,6.5l-1,5
						l5.3,3.9l2.2-0.7l7.6,5.2l-1.9,0.9l6.8,2.9l0.9-1.8l0.7,3.1l-4.4,6.1l1.1,5.3l1.9,0.2l2.5,3.2l1.3,4.6l8.4,6.4l-1.1,2.7
						l5.2,8.4l-0.3,1.3l3.2,5.9l2.1,0.1l1.2,2l-1,1l7,5.4l6.8,1.1l0.4-1.2l-4.7-1.7l-1.8-2.3l0.7-1.9l-3-4.6l4.7-4l-2.3-1.7l0.7-1
						l2,0.8l2.8-5.6l-1.3-2.3l1.1-1.5l4.7-1.2l1.7-3.9l-1.3-1.4l3.9-7.9l-3.7-5.1l-6.3,0.2l-0.5-1.6l-4.4,0.3l-1.7-3.1l0.9-0.9
						l-3.2-3.7l-8.8-4.2l-1.4,1.8l-3.8-3l-6.4,1.4l-1.4,2.5l-3.9-1.1l-2.5-1.4l1.7-3.3l-0.1-1.5l-4.8-0.1l0.2-1l2.9-2.8l-0.8-1.1
						l-3.3,0.4l-0.9,2.3l-4.5-0.6l4-7.8l9.4-2.6l3.2,1.2l-1,3.1l3.1-0.3l-0.2-3.6l7.3-3.4l1.9-3.4l2.2,0.8l6.6-4.8l4.2-1l-0.9,1.5
						l0.5,1l6.5-2.9v-0.8l-4.4,0.5l1.8-1.8l-1-2.1l4.9,0.5l1.9-1.3h2.8l0.2-1.9l-2.3-0.3l2.5-3.4l-0.6-0.4l-3.4,1.1l-1-0.6l1.3-1.4
						l-3.1-1.7l-4.1,2.2l-6.1,4.6l-0.2,2.1l-3.2-1.2l2.6-1.4l0.3-1.3l-3.6-2.2l1.6-1.3l9.5-1.9l3.1-1.9l2.9,0.2l0.6-1.6l-3.4,0.6
						l-1.5-1.5L4816.3,13221.4z"/>
					<g id="g3968">
						<g>
							<defs>
								<path id="SVGID_00000154427053518757640860000005604541408296250020_" d="M4830.6,13210l-1.1,2.1l10.6,1l-4.6,5.6l2.8,4.6
									l6.1-5.1l2.6,1.4l15.3-7.1l-1-2.2l-9.8-0.1l-2.5,1.5L4830.6,13210L4830.6,13210z M4859.7,13219l-5.5-0.9l-1.1,0.9l4.6,2.8
									L4859.7,13219z M4825.1,13213.4l6.9,2.7l-0.2,3.3l-5.8,1.8l-4.4-2.4l5.1-2.3l-4.3-2.1L4825.1,13213.4L4825.1,13213.4z
									 M4824.2,13229.9l-3.9,2.2l3.2,2.2l2.8-2.9L4824.2,13229.9z M4785.7,13252.5h3.6l4.8,2l-2.5,2L4785.7,13252.5
									L4785.7,13252.5z M4796.9,13255.1l-3.6,2.5l3.8,0.2l2.5-1.8L4796.9,13255.1L4796.9,13255.1z M4846.2,13228.9l-2.4,2l2.6,1
									l1.5-1.6L4846.2,13228.9L4846.2,13228.9z M4849.2,13226.6v4.4c0,0-3,1.8-2.5,1.9c0.5,0.1,5.4-0.3,5.4-0.3l-1.2-5.7
									L4849.2,13226.6L4849.2,13226.6z M4864.9,13219.5l-2.8,0.1l-3.3,3.8l-3.2,1l0.4,2.9l3.9-0.7l1,3l4.3-2.8l-1.2-2l3.8-3.2
									l1.4,0.6l-2.8,2.5l1.6,2.1l3.4-1.7l0.8,1.2l-7.4,3.6l-6.1,0.5l-10.8,4.5l2.5,2.4l-0.8,1.3l-5.8-0.2l-1,4.4l5,1.2l3.5-1.3
									l-0.5-2.1l3.7-0.7l-0.5-2l5.1,0.7l4.7,2.9l-0.6,2.8l3.7-2.7l-5-3.2l1-1.1l5.6,4.4l0.3,2.2l3.8,2.2l1.8-0.7l-2.6-1.1l0.7-1.3
									l-1.7-1.4l2.5-1.1l1.5,1.6l-0.9,0.8l3,2.5l4.3-1.3l1.7,1l-0.6,4l9.6,11.2l-0.2,2.4l2.5,2.6l8.6-4.5l-0.2-7l-2.8,0.6
									l-4.8-4.3l1.1-0.6l6,3.7l0.4-37.7l-3.5-0.3l-1.1,1.7l-7,0.3l-0.5,1.5l-9.1,2.1l-1.3-1.3l-0.9,0.6l0.1,1.3l-2.9,1.9l-3-2.2
									l3.8,0.2l0.6-1l-8.1-1.6L4864.9,13219.5L4864.9,13219.5z M4851.7,13244.2l-1.1,1.4l-6.4-0.1l-2.4,1.9l-0.1,2.3l-8.1,6.1
									l0.3,4.9l-2.1,2.9l5.5,6.7l3.5,0.1l0.4,2.2l11.5-2.1l1.5,2l4.6,0.4l1.5,3.3l-1.1,1.3l0.2,2l2,0.8l1.6,6.9l-2.4,2.6v2l2.3,2
									l3.9,10.3l-0.6,2.3l2.2,1.9l4.7-1.4l1.6,0.7l5.1-3.1l4.4-5.9l0.3-5.4l5.1-1.9l1.8-5.9l-2.4-3.6l10-9.5l2.5-6.4l-0.6-1.4
									l-7.9,1.9l-4.8-4.4l0.6-1.4l-6.6-8.4l0.4-1l-0.9-1.7l-12.3-2.6l-0.2,2.1l-2.4,0.5l-3.5-2.4l-2.9-0.5l0.2-2.8L4851.7,13244.2
									L4851.7,13244.2z M4898.5,13287.6l-5,3.6l-1.9,5.9l1.7,0.5l-0.4,2.2l2.9-0.4l4.6-10.9L4898.5,13287.6L4898.5,13287.6z
									 M4817.7,13215.2l-10.6,1.7l-5.7-4.1l-5.9,2.5l-4.7-3.2l-14.3,4.2l-0.1,1.7l5,2.5l-1.5,1.8l-2.1-0.7l2.9,42.2l-1.9,0.9
									l6.8,2.9l0.9-1.8l0.7,3.1l-4.4,6.1l1.1,5.3l1.9,0.2l2.5,3.2l1.3,4.6l8.4,6.4l-1.1,2.7l5.2,8.4l-0.3,1.3l3.2,5.9l2.1,0.1
									l1.2,2l-1,1l7,5.4l6.8,1.1l0.4-1.2l-4.7-1.8l-1.9-2.3l0.7-1.9l-3-4.6l4.7-4l-2.3-1.7l0.7-1l2,0.8l2.8-5.6l-1.3-2.3l1.1-1.5
									l4.7-1.2l1.7-3.9l-1.3-1.4l3.9-7.9l-3.7-5.1l-6.3,0.2l-0.5-1.6l-4.4,0.3l-1.7-3.1l0.9-0.9l-3.2-3.7l-8.8-4.2l-1.4,1.8
									l-3.8-3l-6.4,1.4l-1.4,2.5l-3.9-1.1l-2.5-1.4l1.7-3.3l-0.1-1.5l-4.8-0.1l0.2-1l2.9-2.8l-0.8-1.1l-3.3,0.4l-0.9,2.3l-0.5-8.4
									l9.4-2.6l3.2,1.2l-1,3.1l3.1-0.3l-0.2-3.6l7.3-3.4l1.9-3.4l2.2,0.8l6.6-4.8l4.2-1l-0.9,1.5l0.5,1l6.5-2.9v-0.8l-4.4,0.5
									l1.8-1.8l-1-2.1l4.9,0.5l1.9-1.3h2.8l0.2-1.9l-2.3-0.3l2.5-3.4l-0.6-0.4l-3.4,1.1l-1-0.6l1.3-1.4l-3.1-1.7l-4.1,2.2
									l-6.1,4.6l-0.2,2.1l-3.2-1.2l2.6-1.4l0.3-1.3l-3.6-2.2l1.6-1.3l9.5-1.9l3.1-1.9l2.9,0.2l0.6-1.6l-3.4,0.6l-1.5-1.5
									L4817.7,13215.2z"/>
							</defs>
							
								<radialGradient id="SVGID_00000152233574734183481550000000425218745335796376_" cx="4839.4331" cy="13266.3125" r="59.749" gradientUnits="userSpaceOnUse">
								<stop  offset="3.763169e-04" style="stop-color:#F7EAE9"/>
								<stop  offset="1" style="stop-color:#B61D3E"/>
							</radialGradient>
							
								<use xlink:href="#SVGID_00000154427053518757640860000005604541408296250020_"  style="overflow:visible;fill:url(#SVGID_00000152233574734183481550000000425218745335796376_);"/>
							<clipPath id="SVGID_00000083059562935722687800000005321860307127226517_">
								<use xlink:href="#SVGID_00000154427053518757640860000005604541408296250020_"  style="overflow:visible;"/>
							</clipPath>
							<g id="g3970" style="clip-path:url(#SVGID_00000083059562935722687800000005321860307127226517_);">
								
									<radialGradient id="path3982_00000032647143486790761790000016958795271572935603_" cx="8922.832" cy="484.2047" r="25.823" gradientTransform="matrix(3.8225 0 0 3.8225 -29252.3223 11382.2939)" gradientUnits="userSpaceOnUse">
									<stop  offset="3.763169e-04" style="stop-color:#F7EAE9"/>
									<stop  offset="0.5525" style="stop-color:#CF7678"/>
									<stop  offset="1" style="stop-color:#B61D3E"/>
								</radialGradient>
								
									<path id="path3982" style="fill-rule:evenodd;clip-rule:evenodd;fill:url(#path3982_00000032647143486790761790000016958795271572935603_);" d="
									M4830.6,13210l-1.1,2.1l10.6,1l-4.6,5.6l2.8,4.6l6.1-5.1l2.6,1.4l15.3-7.1l-1-2.2l-9.8-0.1l-2.5,1.5L4830.6,13210
									L4830.6,13210z M4859.7,13219l-5.5-0.9l-1.1,0.9l4.6,2.8L4859.7,13219z M4825.1,13213.4l6.9,2.7l-0.2,3.3l-5.8,1.8l-4.4-2.4
									l5.1-2.3l-4.3-2.1L4825.1,13213.4L4825.1,13213.4z M4824.2,13229.9l-3.9,2.2l3.2,2.2l2.8-2.9L4824.2,13229.9z
									 M4785.7,13252.5h3.6l4.8,2l-2.5,2L4785.7,13252.5L4785.7,13252.5z M4796.9,13255.1l-3.6,2.5l3.8,0.2l2.5-1.8
									L4796.9,13255.1L4796.9,13255.1z M4846.2,13228.9l-2.4,2l2.6,1l1.5-1.6L4846.2,13228.9L4846.2,13228.9z M4849.2,13226.6v4.4
									c0,0-3,1.8-2.5,1.9c0.5,0.1,5.4-0.3,5.4-0.3l-1.2-5.7L4849.2,13226.6L4849.2,13226.6z M4864.9,13219.5l-2.8,0.1l-3.3,3.8
									l-3.2,1l0.4,2.9l3.9-0.7l1,3l4.3-2.8l-1.2-2l3.8-3.2l1.4,0.6l-2.8,2.5l1.6,2.1l3.4-1.7l0.8,1.2l-7.4,3.6l-6.1,0.5l-10.8,4.5
									l2.5,2.4l-0.8,1.3l-5.8-0.2l-1,4.4l5,1.2l3.5-1.3l-0.5-2.1l3.7-0.7l-0.5-2l5.1,0.7l4.7,2.9l-0.6,2.8l3.7-2.7l-5-3.2l1-1.1
									l5.6,4.4l0.3,2.2l3.8,2.2l1.8-0.7l-2.6-1.1l0.7-1.3l-1.7-1.4l2.5-1.1l1.5,1.6l-0.9,0.8l3,2.5l4.3-1.3l1.7,1l-0.6,4l9.6,11.2
									l-0.2,2.4l2.5,2.6l8.6-4.5l-0.2-7l-2.8,0.6l-4.8-4.3l1.1-0.6l6,3.7l0.4-37.7l-3.5-0.3l-1.1,1.7l-7,0.3l-0.5,1.5l-9.1,2.1
									l-1.3-1.3l-0.9,0.6l0.1,1.3l-2.9,1.9l-3-2.2l3.8,0.2l0.6-1l-8.1-1.6L4864.9,13219.5L4864.9,13219.5z M4851.7,13244.2
									l-1.1,1.4l-6.4-0.1l-2.4,1.9l-0.1,2.3l-8.1,6.1l0.3,4.9l-2.1,2.9l5.5,6.7l3.5,0.1l0.4,2.2l11.5-2.1l1.5,2l4.6,0.4l1.5,3.3
									l-1.1,1.3l0.2,2l2,0.8l1.6,6.9l-2.4,2.6v2l2.3,2l3.9,10.3l-0.6,2.3l2.2,1.9l4.7-1.4l1.6,0.7l5.1-3.1l4.4-5.9l0.3-5.4
									l5.1-1.9l1.8-5.9l-2.4-3.6l10-9.5l2.5-6.4l-0.6-1.4l-7.9,1.9l-4.8-4.4l0.6-1.4l-6.6-8.4l0.4-1l-0.9-1.7l-12.3-2.6l-0.2,2.1
									l-2.4,0.5l-3.5-2.4l-2.9-0.5l0.2-2.8L4851.7,13244.2L4851.7,13244.2z M4898.5,13287.6l-5,3.6l-1.9,5.9l1.7,0.5l-0.4,2.2
									l2.9-0.4l4.6-10.9L4898.5,13287.6L4898.5,13287.6z M4817.7,13215.2l-10.6,1.7l-5.7-4.1l-5.9,2.5l-4.7-3.2l-14.3,4.2
									l-0.1,1.7l5,2.5l-1.5,1.8l-2.1-0.7l2.9,42.2l-1.9,0.9l6.8,2.9l0.9-1.8l0.7,3.1l-4.4,6.1l1.1,5.3l1.9,0.2l2.5,3.2l1.3,4.6
									l8.4,6.4l-1.1,2.7l5.2,8.4l-0.3,1.3l3.2,5.9l2.1,0.1l1.2,2l-1,1l7,5.4l6.8,1.1l0.4-1.2l-4.7-1.8l-1.9-2.3l0.7-1.9l-3-4.6
									l4.7-4l-2.3-1.7l0.7-1l2,0.8l2.8-5.6l-1.3-2.3l1.1-1.5l4.7-1.2l1.7-3.9l-1.3-1.4l3.9-7.9l-3.7-5.1l-6.3,0.2l-0.5-1.6
									l-4.4,0.3l-1.7-3.1l0.9-0.9l-3.2-3.7l-8.8-4.2l-1.4,1.8l-3.8-3l-6.4,1.4l-1.4,2.5l-3.9-1.1l-2.5-1.4l1.7-3.3l-0.1-1.5
									l-4.8-0.1l0.2-1l2.9-2.8l-0.8-1.1l-3.3,0.4l-0.9,2.3l-0.5-8.4l9.4-2.6l3.2,1.2l-1,3.1l3.1-0.3l-0.2-3.6l7.3-3.4l1.9-3.4
									l2.2,0.8l6.6-4.8l4.2-1l-0.9,1.5l0.5,1l6.5-2.9v-0.8l-4.4,0.5l1.8-1.8l-1-2.1l4.9,0.5l1.9-1.3h2.8l0.2-1.9l-2.3-0.3l2.5-3.4
									l-0.6-0.4l-3.4,1.1l-1-0.6l1.3-1.4l-3.1-1.7l-4.1,2.2l-6.1,4.6l-0.2,2.1l-3.2-1.2l2.6-1.4l0.3-1.3l-3.6-2.2l1.6-1.3l9.5-1.9
									l3.1-1.9l2.9,0.2l0.6-1.6l-3.4,0.6l-1.5-1.5L4817.7,13215.2z"/>
							</g>
						</g>
					</g>
				</g>
			</g>
		</g>
	</g>
	<g>
		<path d="M206.5,164.1c0,7.9-11.4,8.9-17.5,8.9c1.7,1.2,3.9,1.3,6,1.3c1.4,0,2.6-0.1,4-0.3l5.9,10c0.9,1.5,3.8,2.3,5.4,2.8
			c0.7,0.2,2.3,0.5,3.1,0.4v1.2l-17.6,0c0,0-5.6-10.4-8.9-15.3l-8.5,0v10c0,2.4,4.5,4.4,6.5,4.1v1.2h-23.1v-1.2
			c2.9,0,6.5-1.4,6.5-4.8V160c0-2.3-4.7-4.3-6.6-4v-1.3h29.3c5.5,0,15.4,1.8,15.4,8.9L206.5,164.1L206.5,164.1z M196.6,163.9
			c-0.1-5.7-3.5-7.6-8.8-7.6h-9.4v15.2h10.9C194.1,171.5,196.5,168.5,196.6,163.9"/>
		<path d="M109.3,171.7v0.2c0,11.5-13.4,17.1-23.2,17.1c-10.1,0-23-5.6-23-17.3l0-0.2l0-0.2c0-11.6,13.2-17.4,23.2-17.4
			c10,0,23,6,23,17.5L109.3,171.7z M98.7,173.7v-0.5c0-9.5-0.3-17.8-12.3-17.8c-10.6,0-12.7,6.3-12.7,15.7c0,9.2,1.1,16.5,12.4,16.5
			C95.6,187.6,98.6,182.4,98.7,173.7"/>
		<path d="M433.7,163.2l0,0.2c0,4.8-6.6,6.3-10.7,7.4c4.9,0.9,12.1,3,12.1,8.8l0,0.2l0,0.2c0,7.3-12.8,8.2-18.1,8.2h-27.5l0-1.2
			c0.3,0,0.7,0,1,0c1.5,0,5.4-2.2,5.4-3.9v-23.1c0-2.1-4-4.1-5.9-4.1c-0.2,0-0.5,0-0.7,0.1v-1.3h27.3c4.9,0,17,1.5,17,8.2
			L433.7,163.2z M424,163.2c-0.1-4.6-2.6-6.9-7.2-6.9H406v13.9h10.9C421.6,170.2,423.9,167.8,424,163.2 M424.3,179.6
			c-0.1-4.9-2.2-7.9-7.4-7.9H406l0,15.1c4,0,8,0,12.1,0C422.6,186.8,424.2,183.6,424.3,179.6"/>
		<path d="M214.8,154.9l16.2,0c7.2,6.5,14.4,13,21.5,19.5l0-10.8c0-2.5-0.8-3.9-2.3-5.8c-1-1.2-2.6-2-4.2-1.8v-1.2l14.9,0v1.2h-0.2
			c-2.5,0-3.5,1.7-4.8,3.6c-1.3,1.9-1.6,3-1.6,5.2v23.8h-0.8c-10.1-9.1-20.1-18.2-30.1-27.3v18.2c0,2.2,1.2,3.7,2.4,5.4
			c1.2,1.6,2.1,2.3,4.3,2.3v1.2l-15,0v-1.2c2.9,0,4-1.9,5.5-4.1c0.7-1,1.1-2.1,1.1-3.3v-20c-2.4-2.2-3.2-3.3-6.6-3.6L214.8,154.9
			L214.8,154.9L214.8,154.9z"/>
		<path d="M557,155.6l0,0.5c-0.3,0-0.6,0-0.9,0c-1.8,0-5.7,2-5.7,4v13.5l16.8-13.1c0.7-0.5,0.8-1.1,0-1.9c-2.2-1.9-3.4-2.4-6.4-2.4
			v-0.5v-0.3v-0.5h19v0.5v0.3v0.5l-0.5-0.1c-5.2-0.1-12.2,6.2-16.2,9.5c3.3,3.6,6.5,7.3,9.8,10.9c1.1,1.3,2.2,2.5,3.4,3.8l4.1,4.5
			c1.5,1.6,2.7,2.5,4.9,2.5v0.5v0.2v0.5h-24.2v-0.5v-0.2v-0.5c1.3-0.1,5.4-1.3,5.8-2.8c-0.3-1.5-9.6-11.1-11.3-13.1l-5.2,4.1v7.9
			c0,1.8,4.1,3.8,5.6,3.8h0.9v0.5v0.3v0.5h-23.1v-0.5v-0.2v-0.5h1.1c1.6,0,5.5-2.2,5.5-4.1v-23.1c0-1.4-2.6-2.9-3.7-3.4
			c-1-0.5-1.9-0.4-2.9-0.4v-0.5v-0.3v-0.5h23.2L557,155.6L557,155.6z"/>
		<path d="M486.2,188.3H461v-1.2c1.5,0,6.2-1.4,6.2-3.2c0-0.5-1.4-2.8-2.6-4.4l-0.8-1.2l-16.6,0c-0.4,0.7-0.8,1.6-0.8,2.4
			c0,0.6,0.1,1.1,0.3,1.7c0.1,0.2,0.2,0.5,0.4,0.7c1.3,2.2,2.2,4,5.1,4v1.3h-15.9v-1.2c3.6,0.1,8.1-7.1,9.7-9.9l5.8-10.7l7-12.9h0.8
			c3.4,5.1,6.8,10.2,10.1,15.2c2.2,3.3,4.3,6.6,6.5,10c1,1.6,2,3.2,3.1,4.7c1.5,2.2,4.4,3.5,7,3.5L486.2,188.3L486.2,188.3
			L486.2,188.3z M462.8,176.8l-8.2-12.5c-2.2,4.1-4.4,8.4-6.7,12.5H462.8z"/>
		<path d="M358.7,164.1c0,7.9-11.4,8.9-17.6,8.9c1.7,1.2,3.9,1.3,6,1.3c1.4,0,2.6-0.1,4-0.3l5.9,10c0.9,1.5,3.8,2.3,5.4,2.8
			c0.7,0.2,2.3,0.5,3.1,0.4v1.2l-17.6,0c0,0-5.6-10.4-8.9-15.3l-8.5,0v10c0,2.4,4.5,4.4,6.5,4.1v1.2h-23.1v-1.2
			c2.9,0,6.5-1.4,6.5-4.8V160c0-2.3-4.7-4.3-6.6-4v-1.3h29.3c5.5,0,15.4,1.8,15.4,8.9L358.7,164.1L358.7,164.1L358.7,164.1z
			 M348.7,163.9c-0.1-5.7-3.5-7.6-8.8-7.6h-9.4v15.2h10.9C346.2,171.5,348.7,168.5,348.7,163.9"/>
		<path d="M483.6,154.9l16.2,0c7.2,6.5,14.4,13,21.5,19.5l0-10.8c0-2.5-0.8-3.9-2.3-5.8c-1-1.2-2.6-2-4.2-1.8v-1.2l14.9,0v1.2h-0.2
			c-2.5,0-3.5,1.7-4.8,3.6c-1.3,1.9-1.6,3-1.6,5.2v23.3v0.5h-0.8c-10.1-9.1-20.1-18.2-30.1-27.3v18.2c0,2.2,1.2,3.7,2.4,5.4
			c1.2,1.6,2.1,2.3,4.3,2.3v1.2l-0.5,0h-14.5v-0.5v-0.3v-0.5c2.9,0,4-1.9,5.5-4.1c0.7-1,1.1-2.1,1.1-3.3v-20
			c-2.4-2.2-3.2-3.3-6.6-3.6v-0.5v-0.3L483.6,154.9L483.6,154.9L483.6,154.9z"/>
		<path d="M153.4,165.8h-0.9c-1.4-1.7-2.9-3.2-4.3-4.8c-2.3-2.3-4.3-4.8-8-4.8h-10.9v13.3h5.2c1.7,0,2.4-0.5,3.5-1.8
			c1.4-1.6,3.2-2.6,3.7-4.8l0.8-0.1v14.3l-0.8-0.1c-0.6-2.3-2.2-3.1-3.8-4.6c-0.9-0.9-2.2-1.3-3.6-1.3h-5v15.6h10.7
			c4,0,10.5-8.5,12.9-11.7l0.8-0.1v13.3h-41.1V187h1c2.2,0,5.6-2.1,5.6-4.5l0-22.2c0-0.9-0.3-1.6-1-2.1c-1.3-1-3-2.2-4.7-2.2
			c-0.3,0-0.6,0-0.8,0.1v-1.3h40.7V165.8z"/>
		<path d="M305.7,165.8h-0.9c-1.4-1.7-2.9-3.2-4.3-4.8c-2.3-2.3-4.3-4.8-8-4.8h-10.9v13.3h5.2c1.7,0,2.4-0.5,3.5-1.8
			c1.4-1.6,3.3-2.6,3.7-4.8l0.8-0.1v14.3l-0.8-0.1c-0.6-2.3-2.2-3.1-3.8-4.6c-0.9-0.9-2.2-1.3-3.6-1.3h-5v15.6h10.8
			c4,0,10.5-8.5,12.9-11.7l0.8-0.1v13.3H265v-1.2h1c2.2,0,5.6-2.1,5.6-4.5l0-22.2c0-0.9-0.3-1.6-1-2.2c-1.3-1-3-2.2-4.7-2.2
			c-0.3,0-0.6,0-0.8,0.1v-1.3h40.7L305.7,165.8L305.7,165.8L305.7,165.8z"/>
		<path d="M31.1,155.9c-0.3,0-0.6,0-0.8,0c-2,0-5.7,2.1-5.7,4.3v9.5l17.5,0v-9.5c0-2.2-3.7-4.3-5.7-4.3c-0.3,0-0.6,0-0.8,0l0-1.2h23
			v1.2c-2.3-0.4-6.5,1.7-6.5,4.3v22.1c0,0.3,0,0.6,0,0.9c0.1,1.9,3.9,3.9,5.6,3.9l0.9,0v1.2H35.4v-1.2c0.3,0,0.7,0,1,0
			c0.6,0,1.3-0.1,1.9-0.4c1.1-0.6,3.7-2.1,3.7-3.4v-11.9l-17.4,0v11.9c0,1.4,2.6,2.8,3.7,3.4c0.6,0.3,1.3,0.4,1.9,0.4
			c0.3,0,0.7,0,1,0v1.2H8v-1.2l0.9,0c1.7,0,5.5-2.1,5.6-3.9c0-0.3,0-0.6,0-0.9v-22.1c0-2.6-4.3-4.7-6.5-4.3v-1.2h23L31.1,155.9z"/>
		<path d="M191.2,220.7l1.6,3.8h1.7l-6.1-14.2l-6.2,14.2h1.7l1.6-3.8H191.2L191.2,220.7z M190.7,219.3h-4.6l2.3-5.4L190.7,219.3z"/>
		<polygon points="200.2,216.8 200.2,211 198.7,211 198.7,224.5 200.2,224.5 200.2,218.7 200.6,218.3 206.1,224.5 208.2,224.5 
			201.6,217.3 208,211 205.9,211 		"/>
		<polygon points="215.9,212.4 219.2,212.4 219.2,211 211.1,211 211.1,212.4 214.4,212.4 214.4,224.5 215.9,224.5 		"/>
		<rect x="223.5" y="211" width="1.5" height="13.5"/>
		<polygon points="230.4,224.5 237.4,224.5 237.4,223.1 231.9,223.1 231.9,217.8 237.3,217.8 237.3,216.4 231.9,216.4 231.9,212.4 
			237.4,212.4 237.4,211 230.4,211 		"/>
		<polygon points="242.8,224.5 244.3,224.5 244.3,214.1 254.9,225.1 254.9,211 253.4,211 253.4,221.4 242.8,210.4 		"/>
		<path d="M267.3,217.7v1.4h4c0,2.5-2.5,4.2-4.8,4.2c-1.4,0-2.9-0.7-3.8-1.7c-1-1-1.6-2.4-1.6-3.8c0-3.1,2.4-5.7,5.5-5.7
			c2,0,3.5,1,4.7,2.6l1.1-1c-1.4-1.9-3.4-2.9-5.7-2.9c-3.9,0-7.1,3.2-7.1,7c0,3.8,3.2,7,7,7c1.9,0,3.8-0.8,5-2.3
			c1.2-1.4,1.4-2.9,1.4-4.8L267.3,217.7z"/>
		<polygon points="277.8,224.5 284.8,224.5 284.8,223.1 279.3,223.1 279.3,217.8 284.6,217.8 284.6,216.4 279.3,216.4 279.3,212.4 
			284.8,212.4 284.8,211 277.8,211 		"/>
		<path d="M297.4,212.8c-0.7-1.3-2-2.1-3.5-2.1c-2,0-3.8,1.3-3.8,3.4c0,1.9,1.4,2.7,2.9,3.5l0.8,0.4c1.3,0.6,2.5,1.1,2.5,2.7
			c0,1.5-1.3,2.6-2.8,2.6c-1.5,0-2.5-1.1-2.7-2.5l-1.5,0.4c0.4,2.1,2,3.5,4.2,3.5c2.4,0,4.3-1.8,4.3-4.2c0-2.2-1.5-3-3.2-3.8
			l-0.9-0.4c-0.9-0.4-2.1-1-2.1-2.1c0-1.2,1-2.1,2.2-2.1c1.2,0,1.8,0.5,2.3,1.5L297.4,212.8z"/>
		<polygon points="302.8,224.5 309.8,224.5 309.8,223.1 304.3,223.1 304.3,217.8 309.6,217.8 309.6,216.4 304.3,216.4 304.3,212.4 
			309.8,212.4 309.8,211 302.8,211 		"/>
		<polygon points="316.6,211 315,211 315,224.5 320.3,224.5 320.3,223.1 316.6,223.1 		"/>
		<polygon points="326,211 324.5,211 324.5,224.5 329.7,224.5 329.7,223.1 326,223.1 		"/>
		<path d="M341.2,212.8c-0.7-1.3-2-2.1-3.5-2.1c-2,0-3.8,1.3-3.8,3.4c0,1.9,1.4,2.7,2.9,3.5l0.8,0.4c1.3,0.6,2.5,1.1,2.5,2.7
			c0,1.5-1.3,2.6-2.8,2.6c-1.5,0-2.5-1.1-2.7-2.5l-1.5,0.4c0.4,2.1,2,3.5,4.2,3.5c2.4,0,4.3-1.8,4.3-4.2c0-2.2-1.5-3-3.2-3.8
			l-0.9-0.4c-0.9-0.4-2.1-1-2.1-2.1c0-1.2,1-2.1,2.2-2.1c1.2,0,1.8,0.5,2.3,1.5L341.2,212.8z"/>
		<path d="M356.9,212.1c-1.2-0.9-2.5-1.3-4-1.3c-3.9,0-7.1,3.2-7.1,7.1c0,3.8,3.2,7,7.1,7c1.4,0,2.9-0.5,4-1.3v-1.9
			c-1.1,1.1-2.6,1.8-4.1,1.8c-3,0-5.5-2.6-5.5-5.6c0-3,2.4-5.6,5.5-5.6c1.6,0,3,0.7,4.1,1.8L356.9,212.1
			C356.9,212.1,356.9,212.1,356.9,212.1z"/>
		<polygon points="363.7,216.5 363.7,211 362.2,211 362.2,224.5 363.7,224.5 363.7,217.9 370.7,217.9 370.7,224.5 372.2,224.5 
			372.2,211 370.7,211 370.7,216.5 		"/>
		<path d="M385.5,220.7l1.6,3.8h1.7l-6.1-14.2l-6.2,14.2h1.7l1.6-3.8H385.5L385.5,220.7z M384.9,219.3h-4.6l2.3-5.4L384.9,219.3z"/>
		<polygon points="399.1,212.4 399.1,211 392.9,211 392.9,224.5 394.4,224.5 394.4,217.8 398.9,217.8 398.9,216.4 394.4,216.4 
			394.4,212.4 		"/>
		<polygon points="407.8,212.4 411.1,212.4 411.1,211 403,211 403,212.4 406.3,212.4 406.3,224.5 407.8,224.5 		"/>
		<path d="M192.1,102.4c-0.7-1.3-2-2.1-3.5-2.1c-2,0-3.8,1.3-3.8,3.4c0,1.9,1.4,2.7,2.9,3.5l0.8,0.4c1.3,0.6,2.5,1.1,2.5,2.7
			c0,1.5-1.3,2.6-2.8,2.6c-1.5,0-2.5-1.1-2.7-2.5l-1.5,0.4c0.4,2.1,2,3.5,4.2,3.5c2.4,0,4.3-1.8,4.3-4.2c0-2.2-1.5-3-3.2-3.8
			l-0.9-0.4c-0.9-0.4-2.1-1-2.1-2.1c0-1.2,1-2.1,2.2-2.1c1.1,0,1.8,0.5,2.3,1.5L192.1,102.4z"/>
		<polygon points="198.9,114.1 205.9,114.1 205.9,112.7 200.4,112.7 200.4,107.4 205.7,107.4 205.7,106 200.4,106 200.4,102 
			205.9,102 205.9,100.6 198.9,100.6 		"/>
		<rect x="212.6" y="100.6" width="1.5" height="13.5"/>
		<polygon points="224.5,102 227.8,102 227.8,100.6 219.8,100.6 219.8,102 223,102 223,114.1 224.5,114.1 		"/>
		<polygon points="366.8,102 366.8,114.1 368.3,114.1 368.3,100.6 365.4,100.6 364.6,102 		"/>
		<path d="M379.8,107.8c1.5,0,2.6,1.2,2.6,2.6c0,1.4-1.2,2.6-2.6,2.6c-1.5,0-2.6-1.2-2.6-2.6C377.1,108.9,378.3,107.8,379.8,107.8
			 M379.8,100.4c-2.1,0-3.8,1.6-3.8,3.8c0,1.2,0.6,2.4,1.6,3c-1.3,0.6-2,1.9-2,3.2c0,2.3,1.8,4,4.1,4c2.3,0,4.1-1.7,4.1-4
			c0-1.4-0.7-2.7-2-3.2c1-0.6,1.6-1.8,1.6-3C383.6,102,381.9,100.4,379.8,100.4 M379.8,101.8c1.3,0,2.4,1,2.4,2.3
			c0,1.3-1.1,2.4-2.4,2.4c-1.3,0-2.4-1.1-2.4-2.4C377.4,102.8,378.5,101.8,379.8,101.8"/>
		<path d="M395.3,110.5V99.8h0l-8.4,12.1h6.9v2.2h1.5v-2.2h1.7v-1.4H395.3z M393.8,110.5h-4.3l4.3-6.1h0V110.5z"/>
		<path d="M403.6,114.4l4.5-6.1c0.7-1,1.3-2,1.3-3.3c0-2.6-2.1-4.6-4.7-4.6c-2.5,0-4.7,2-4.7,4.6c0,2.5,1.9,4.5,4.4,4.5
			c0.4,0,0.8-0.1,1.2-0.2l0,0l-3.1,4.3L403.6,114.4z M404.7,101.8c1.7,0,3.2,1.4,3.2,3.2c0,1.8-1.4,3.1-3.2,3.1
			c-1.8,0-3.2-1.4-3.2-3.1C401.5,103.2,402.9,101.8,404.7,101.8"/>
	</g>
</g>
<g id="Isolationsmodus">
</g>
</svg>
