<?xml version="1.0" encoding="utf-8"?>
<!-- Generator: Adobe Illustrator 27.8.0, SVG Export Plug-In . SVG Version: 6.00 Build 0)  -->
<svg version="1.1" id="Ebene_1" xmlns="http://www.w3.org/2000/svg" xmlns:xlink="http://www.w3.org/1999/xlink" x="0px" y="0px"
	 viewBox="0 0 450 70" style="enable-background:new 0 0 450 70;" xml:space="preserve">
<style type="text/css">
	.st0{clip-path:url(#SVGID_00000079450783316251836270000015504060114811081379_);fill:#FFFFFF;}
	.st1{clip-path:url(#SVGID_00000079450783316251836270000015504060114811081379_);fill:#EC6608;}
	.st2{clip-path:url(#SVGID_00000079450783316251836270000015504060114811081379_);}
	.st3{clip-path:url(#SVGID_00000098201088785835768940000002367067967920288155_);fill:#EC6608;}
	.st4{clip-path:url(#SVGID_00000098201088785835768940000002367067967920288155_);fill:#005DA9;}
</style>
<g>
	<g>
		<defs>
			<rect id="SVGID_1_" x="-30" y="-31" width="352" height="130.17"/>
		</defs>
		<clipPath id="SVGID_00000128455404210916427430000003772952350153835153_">
			<use xlink:href="#SVGID_1_"  style="overflow:visible;"/>
		</clipPath>
		
			<rect x="2.47" y="1.77" style="clip-path:url(#SVGID_00000128455404210916427430000003772952350153835153_);fill:#FFFFFF;" width="97.4" height="64.93"/>
		<polygon style="clip-path:url(#SVGID_00000128455404210916427430000003772952350153835153_);fill:#EC6608;" points="2.47,55.34 
			2.47,66.71 41.68,66.71 39.12,55.34 		"/>
		<g style="clip-path:url(#SVGID_00000128455404210916427430000003772952350153835153_);">
			<defs>
				<rect id="SVGID_00000099632037995753961240000006939402404986914450_" x="-30" y="-31" width="352" height="130.17"/>
			</defs>
			<clipPath id="SVGID_00000055678088865020491750000011093493299955083145_">
				<use xlink:href="#SVGID_00000099632037995753961240000006939402404986914450_"  style="overflow:visible;"/>
			</clipPath>
			<path style="clip-path:url(#SVGID_00000055678088865020491750000011093493299955083145_);fill:#EC6608;" d="M99.87,66.7V55.34
				H62.55c-0.99,5.24-1.84,9.64-2.16,11.36H99.87z"/>
			<path style="clip-path:url(#SVGID_00000055678088865020491750000011093493299955083145_);fill:#005DA9;" d="M22.15,28.37
				l-2.79-11.82H43.2l7.72,33.92h0.33l4.87-21.73c2.45-9.86,3.38-12.19,17.19-12.19h9.94c0,0-2.01,9.09-4.5,18.96
				c-0.96,3.76-9.25,3.32-8.84-0.2c0.04-0.37,0.44-3.01,0.75-4.9c0.45-2.71-2.69-3.05-3.26-0.37c-0.4,1.92-2.23,11.45-3.93,20.42
				h36.41V1.77H2.47v48.7h35.57l-4.95-22.09L22.15,28.37z"/>
			<path style="clip-path:url(#SVGID_00000055678088865020491750000011093493299955083145_);fill:#005DA9;" d="M130.16,16.49
				c0.3,0.78,0.56,1.48,0.79,2.1c0.23,0.62,0.47,1.32,0.72,2.1c0.25,0.8,0.47,1.52,0.67,2.16c0.19,0.64,0.41,1.36,0.64,2.16
				c0.27-0.78,0.53-1.51,0.77-2.18c0.24-0.68,0.48-1.34,0.72-2c0.24-0.65,0.49-1.32,0.74-1.99c0.25-0.68,0.52-1.4,0.79-2.18
				l4.74-12.92h3.71L135.08,28h-4.16l-9.14-24.26h3.81L130.16,16.49z"/>
			<path style="clip-path:url(#SVGID_00000055678088865020491750000011093493299955083145_);fill:#005DA9;" d="M142.71,19.17
				c0.02-0.89,0.13-1.77,0.31-2.63s0.5-1.67,0.96-2.42c0.32-0.53,0.73-1.04,1.22-1.55c0.49-0.5,1.07-0.95,1.74-1.34
				c0.66-0.39,1.42-0.7,2.27-0.94c0.85-0.24,1.79-0.36,2.82-0.36c0.96,0,1.78,0.1,2.44,0.29c0.66,0.2,1.19,0.38,1.58,0.57
				c0.55,0.27,1.1,0.65,1.65,1.13c0.55,0.48,1.05,1.05,1.49,1.72c0.45,0.66,0.81,1.43,1.1,2.3c0.29,0.87,0.44,1.86,0.47,2.96
				c0.02,1.15-0.16,2.37-0.55,3.66c-0.39,1.29-1.11,2.46-2.16,3.49c-0.39,0.37-0.8,0.68-1.22,0.95c-0.43,0.26-0.84,0.49-1.26,0.67
				c-0.39,0.18-0.9,0.34-1.53,0.48c-0.63,0.14-1.41,0.21-2.35,0.21c-1.24,0-2.24-0.12-3.01-0.36c-0.77-0.24-1.41-0.52-1.94-0.84
				c-0.37-0.21-0.76-0.48-1.17-0.82c-0.39-0.37-0.76-0.78-1.12-1.24c-0.36-0.46-0.66-0.97-0.91-1.55c-0.25-0.57-0.45-1.22-0.6-1.94
				C142.78,20.87,142.71,20.06,142.71,19.17 M146.18,18.9c-0.02,0.6,0.01,1.18,0.1,1.75c0.09,0.57,0.26,1.13,0.52,1.68
				c0.27,0.62,0.57,1.12,0.89,1.5c0.32,0.38,0.61,0.66,0.86,0.84c0.25,0.18,0.44,0.31,0.55,0.38c0.11,0.07,0.23,0.13,0.34,0.17
				c0.48,0.23,0.94,0.37,1.37,0.41c0.44,0.05,0.72,0.07,0.86,0.07c0.6,0,1.1-0.07,1.53-0.22c0.42-0.15,0.76-0.28,1.01-0.4
				c0.62-0.34,1.13-0.76,1.53-1.25c0.4-0.49,0.72-1.02,0.95-1.58c0.23-0.56,0.39-1.13,0.48-1.7c0.09-0.57,0.14-1.1,0.14-1.58
				c0-0.71-0.06-1.34-0.19-1.89c-0.13-0.55-0.25-0.95-0.36-1.2c-0.16-0.37-0.36-0.74-0.6-1.13c-0.24-0.39-0.55-0.75-0.93-1.08
				c-0.38-0.33-0.83-0.6-1.36-0.82c-0.53-0.22-1.15-0.33-1.86-0.33c-0.87,0-1.6,0.14-2.18,0.41c-0.58,0.27-1.06,0.56-1.42,0.86
				c-0.55,0.46-1.05,1.12-1.5,1.97C146.47,16.61,146.22,17.66,146.18,18.9"/>
			
				<rect x="163.77" y="1.99" style="clip-path:url(#SVGID_00000055678088865020491750000011093493299955083145_);fill:#005DA9;" width="3.26" height="26.01"/>
			<polygon style="clip-path:url(#SVGID_00000055678088865020491750000011093493299955083145_);fill:#005DA9;" points="174.18,1.99 
				174.18,17.59 181.43,10.24 185.83,10.24 177.48,18 186.83,28 182.22,28 174.18,18.9 174.18,28 170.92,28 170.92,1.99 			"/>
			<path style="clip-path:url(#SVGID_00000055678088865020491750000011093493299955083145_);fill:#005DA9;" d="M197.31,13.36
				c-0.94-0.32-1.68-0.54-2.23-0.67c-0.55-0.13-1.05-0.19-1.51-0.19c-0.5,0-0.93,0.06-1.27,0.17c-0.34,0.11-0.61,0.25-0.79,0.41
				c-0.05,0.05-0.11,0.11-0.21,0.21c-0.09,0.09-0.19,0.19-0.27,0.31c-0.05,0.09-0.11,0.24-0.21,0.45c-0.09,0.21-0.14,0.44-0.14,0.69
				c0.02,0.18,0.05,0.34,0.1,0.47c0.05,0.13,0.09,0.23,0.14,0.33c0.14,0.25,0.32,0.49,0.55,0.7c0.23,0.22,0.58,0.47,1.07,0.74
				c0.07,0.05,0.14,0.09,0.21,0.12c0.07,0.04,0.15,0.08,0.24,0.12c0.53,0.27,0.99,0.51,1.39,0.71c0.4,0.19,0.76,0.38,1.07,0.55
				c0.31,0.17,0.59,0.35,0.84,0.53c0.25,0.19,0.5,0.4,0.76,0.65c0.27,0.3,0.55,0.73,0.82,1.29c0.27,0.56,0.41,1.21,0.41,1.94
				c0,1.01-0.3,1.96-0.91,2.85s-1.48,1.57-2.63,2.03c-0.55,0.23-1.1,0.36-1.63,0.4c-0.54,0.03-0.89,0.06-1.05,0.08
				c-1.21,0.02-2.22-0.09-3.01-0.34c-0.79-0.25-1.45-0.49-1.97-0.72l0.24-2.96c0.14,0.07,0.36,0.18,0.65,0.33
				c0.3,0.15,0.64,0.3,1.03,0.45c0.39,0.15,0.81,0.27,1.25,0.38c0.45,0.1,0.91,0.14,1.39,0.12c1.03-0.02,1.79-0.29,2.27-0.79
				c0.48-0.5,0.72-1.03,0.72-1.58c0-0.57-0.17-1.05-0.52-1.44c-0.19-0.18-0.38-0.34-0.58-0.46c-0.21-0.13-0.41-0.25-0.62-0.36
				c-0.48-0.25-0.95-0.5-1.39-0.74c-0.45-0.24-0.9-0.5-1.36-0.77c-0.37-0.23-0.72-0.46-1.05-0.69c-0.33-0.23-0.62-0.5-0.88-0.82
				c-0.66-0.82-1.02-1.76-1.07-2.82c-0.05-0.87,0.18-1.74,0.69-2.6c0.5-0.86,1.27-1.52,2.3-1.97c0.27-0.11,0.65-0.23,1.12-0.34
				c0.47-0.11,1.04-0.18,1.7-0.21c0.82-0.02,1.59,0.03,2.3,0.17c0.71,0.14,1.46,0.32,2.27,0.55L197.31,13.36z"/>
			<path style="clip-path:url(#SVGID_00000055678088865020491750000011093493299955083145_);fill:#005DA9;" d="M204.21,1.99v11.13
				c0.05-0.09,0.19-0.3,0.43-0.62c0.24-0.32,0.52-0.63,0.84-0.93c0.44-0.39,1.07-0.76,1.91-1.12c0.83-0.35,1.81-0.53,2.94-0.53
				c0.85,0,1.57,0.09,2.18,0.27c0.61,0.18,1.07,0.37,1.39,0.55c0.53,0.3,1.07,0.72,1.62,1.27c0.55,0.55,1.04,1.34,1.48,2.37
				c0.23,0.53,0.41,1.06,0.53,1.6c0.13,0.54,0.22,1.03,0.27,1.48c0.06,0.45,0.09,0.84,0.1,1.19c0.01,0.34,0.02,0.58,0.02,0.72
				c0,1.03-0.13,2.1-0.4,3.2c-0.26,1.1-0.83,2.14-1.7,3.13c-0.3,0.34-0.63,0.66-1,0.96c-0.37,0.3-0.78,0.57-1.24,0.81
				c-0.46,0.24-0.99,0.43-1.58,0.57c-0.6,0.14-1.26,0.22-1.99,0.24c-0.11,0-0.34-0.01-0.67-0.02c-0.33-0.01-0.72-0.06-1.17-0.14
				c-0.45-0.08-0.92-0.23-1.42-0.45c-0.5-0.22-1-0.53-1.48-0.95c-0.27-0.23-0.52-0.47-0.74-0.72c-0.22-0.25-0.43-0.52-0.63-0.79V28
				h-2.96V1.99H204.21z M204.25,18.65c-0.02,0.11-0.03,0.23-0.03,0.34v0.31c0,1.08,0.15,1.97,0.45,2.66s0.64,1.28,1.03,1.73
				c0.48,0.53,0.94,0.9,1.37,1.12c0.44,0.22,0.76,0.36,0.96,0.43c0.32,0.11,0.62,0.19,0.91,0.22c0.29,0.03,0.49,0.05,0.6,0.05
				c0.66,0,1.24-0.12,1.72-0.36s0.85-0.47,1.1-0.67c0.44-0.37,0.8-0.78,1.1-1.26c0.3-0.47,0.53-0.96,0.71-1.46
				c0.17-0.5,0.29-1,0.36-1.5c0.07-0.49,0.1-0.93,0.1-1.32c-0.05-1.15-0.27-2.21-0.69-3.2c-0.18-0.46-0.42-0.88-0.72-1.27
				c-0.3-0.39-0.65-0.73-1.07-1.03c-0.39-0.27-0.82-0.48-1.31-0.62c-0.48-0.14-0.96-0.19-1.44-0.17c-0.18,0-0.5,0.05-0.96,0.14
				c-0.46,0.09-0.95,0.3-1.48,0.62c-0.66,0.41-1.18,0.9-1.53,1.46c-0.36,0.56-0.63,1.11-0.81,1.63c-0.18,0.53-0.29,0.99-0.33,1.39
				C204.26,18.32,204.25,18.56,204.25,18.65"/>
			<path style="clip-path:url(#SVGID_00000055678088865020491750000011093493299955083145_);fill:#005DA9;" d="M221.7,11.4
				c0.23-0.11,0.43-0.22,0.6-0.31c0.17-0.09,0.36-0.19,0.57-0.31c0.48-0.23,0.97-0.4,1.46-0.52c0.49-0.11,0.95-0.2,1.37-0.26
				c0.42-0.06,0.79-0.09,1.1-0.1c0.31-0.01,0.53-0.02,0.67-0.02c1.44,0,2.67,0.25,3.69,0.74c1.02,0.49,1.77,1.13,2.25,1.91
				c0.25,0.37,0.43,0.77,0.55,1.22c0.11,0.45,0.24,1.06,0.38,1.84V28h-2.82v-2.82c-0.34,0.39-0.66,0.73-0.95,1.01
				c-0.29,0.29-0.62,0.58-1.01,0.88c-0.46,0.32-1.05,0.61-1.77,0.86c-0.72,0.25-1.61,0.36-2.66,0.31c-0.71-0.05-1.39-0.16-2.05-0.34
				c-0.65-0.18-1.24-0.48-1.77-0.89c-0.46-0.39-0.84-0.85-1.13-1.39c-0.3-0.54-0.5-1.12-0.62-1.74c-0.07-0.34-0.1-0.68-0.1-1
				c0-0.71,0.11-1.33,0.33-1.86c0.22-0.53,0.49-0.98,0.81-1.36c0.32-0.38,0.68-0.69,1.08-0.94c0.4-0.25,0.77-0.46,1.12-0.62
				c0.92-0.44,1.88-0.7,2.9-0.79c1.02-0.09,1.99-0.14,2.9-0.14c0.46,0,0.9,0,1.34,0.02c0.44,0.01,0.87,0.03,1.31,0.05
				c-0.02-0.37-0.05-0.76-0.09-1.17c-0.03-0.41-0.12-0.8-0.26-1.17c-0.23-0.6-0.68-1.15-1.36-1.65c-0.68-0.5-1.58-0.76-2.7-0.76
				c-0.57,0-1.13,0.07-1.67,0.21c-0.54,0.14-1.04,0.3-1.49,0.48c-0.46,0.18-0.86,0.37-1.2,0.57c-0.34,0.19-0.61,0.34-0.79,0.43V11.4
				z M231.32,19.51c-0.82-0.07-1.65-0.1-2.47-0.1c-0.57,0-1.05,0.02-1.44,0.07c-0.39,0.05-0.71,0.09-0.96,0.14
				c-0.41,0.09-0.83,0.22-1.26,0.4c-0.42,0.17-0.8,0.39-1.13,0.65c-0.33,0.27-0.61,0.59-0.82,0.96c-0.22,0.38-0.33,0.82-0.33,1.32
				c0,0.53,0.11,0.97,0.34,1.34c0.23,0.37,0.52,0.66,0.86,0.88c0.34,0.22,0.72,0.38,1.13,0.48c0.41,0.1,0.81,0.15,1.2,0.15
				c0.66,0,1.33-0.14,1.99-0.41c0.66-0.27,1.26-0.77,1.79-1.48c0.27-0.34,0.47-0.65,0.58-0.93c0.11-0.27,0.19-0.47,0.24-0.58
				c0.09-0.27,0.16-0.6,0.21-0.96c0.05-0.37,0.07-0.85,0.07-1.44V19.51z"/>
			<path style="clip-path:url(#SVGID_00000055678088865020491750000011093493299955083145_);fill:#005DA9;" d="M241.25,12.78
				c0.27-0.32,0.48-0.55,0.62-0.69l0.48-0.48c0.5-0.44,1.15-0.82,1.94-1.15c0.79-0.33,1.79-0.5,3.01-0.5c1.01,0,1.82,0.13,2.44,0.38
				c0.62,0.25,1.15,0.57,1.62,0.96c0.76,0.66,1.27,1.4,1.55,2.2c0.27,0.8,0.46,1.56,0.55,2.27c0.02,0.18,0.04,0.35,0.05,0.5
				c0.01,0.15,0.02,0.33,0.02,0.53c0.02,0.27,0.03,0.53,0.03,0.76c0,0.23,0.01,0.49,0.03,0.79V28h-3.23v-9.86
				c0-0.46-0.01-0.92-0.03-1.37c-0.02-0.46-0.13-0.92-0.31-1.37c-0.07-0.23-0.18-0.5-0.34-0.81c-0.16-0.31-0.38-0.6-0.65-0.88
				c-0.27-0.27-0.63-0.51-1.05-0.7c-0.42-0.19-0.92-0.29-1.49-0.29c-0.14,0-0.37,0.02-0.69,0.05c-0.32,0.03-0.68,0.14-1.07,0.31
				c-0.39,0.17-0.8,0.42-1.22,0.76c-0.42,0.33-0.81,0.78-1.15,1.36c-0.39,0.66-0.63,1.39-0.72,2.16c-0.09,0.78-0.15,1.51-0.17,2.2
				V28h-3.3V10.24h3.09V12.78z"/>
			<polygon style="clip-path:url(#SVGID_00000055678088865020491750000011093493299955083145_);fill:#005DA9;" points="260.77,1.99 
				260.77,17.59 268.02,10.24 272.42,10.24 264.07,18 273.42,28 268.81,28 260.77,18.9 260.77,28 257.51,28 257.51,1.99 			"/>
			<path style="clip-path:url(#SVGID_00000055678088865020491750000011093493299955083145_);fill:#005DA9;" d="M127.41,55.5
				c0.39-0.55,0.75-1.07,1.08-1.56c0.33-0.49,0.66-0.98,1-1.46c0.33-0.48,0.67-0.96,1.01-1.46c0.34-0.49,0.71-1.02,1.1-1.59
				c0.37-0.53,0.72-1.02,1.05-1.48c0.33-0.46,0.66-0.92,0.98-1.37l0.96-1.37c0.32-0.46,0.68-0.95,1.07-1.48h-12.37v-2.75h16.12v2.88
				l-5.02,7.29c-0.34,0.5-0.67,0.97-0.98,1.41c-0.31,0.44-0.61,0.87-0.91,1.31c-0.3,0.44-0.6,0.87-0.89,1.3
				c-0.3,0.44-0.62,0.9-0.96,1.41c-0.73,1.07-1.4,2.05-1.99,2.92c-0.6,0.87-1.26,1.84-1.99,2.92h12.92v2.82h-16.77v-3.09
				L127.41,55.5z"/>
			<path style="clip-path:url(#SVGID_00000055678088865020491750000011093493299955083145_);fill:#005DA9;" d="M140.51,56.41
				c0.02-0.89,0.13-1.77,0.31-2.63c0.18-0.86,0.5-1.67,0.96-2.42c0.32-0.53,0.73-1.04,1.22-1.55c0.49-0.5,1.07-0.95,1.74-1.34
				s1.42-0.7,2.27-0.94c0.85-0.24,1.79-0.36,2.82-0.36c0.96,0,1.78,0.1,2.44,0.29c0.66,0.2,1.19,0.38,1.58,0.57
				c0.55,0.27,1.1,0.65,1.65,1.13s1.05,1.05,1.49,1.72c0.45,0.66,0.81,1.43,1.1,2.3c0.29,0.87,0.44,1.86,0.47,2.96
				c0.02,1.15-0.16,2.37-0.55,3.66c-0.39,1.29-1.11,2.46-2.16,3.49c-0.39,0.37-0.8,0.68-1.22,0.95c-0.43,0.26-0.84,0.49-1.26,0.67
				c-0.39,0.18-0.9,0.34-1.53,0.48c-0.63,0.14-1.41,0.21-2.35,0.21c-1.24,0-2.24-0.12-3.01-0.36s-1.41-0.52-1.94-0.84
				c-0.37-0.21-0.76-0.48-1.17-0.82c-0.39-0.37-0.76-0.78-1.12-1.24c-0.36-0.46-0.66-0.97-0.91-1.55c-0.25-0.57-0.45-1.22-0.6-1.94
				C140.58,58.12,140.51,57.31,140.51,56.41 M143.98,56.14c-0.02,0.6,0.01,1.18,0.1,1.75c0.09,0.57,0.26,1.13,0.52,1.68
				c0.27,0.62,0.57,1.12,0.89,1.5c0.32,0.38,0.61,0.66,0.86,0.84c0.25,0.18,0.44,0.31,0.55,0.38c0.11,0.07,0.23,0.13,0.34,0.17
				c0.48,0.23,0.94,0.37,1.37,0.41c0.44,0.05,0.72,0.07,0.86,0.07c0.6,0,1.1-0.07,1.53-0.22c0.42-0.15,0.76-0.28,1.01-0.4
				c0.62-0.34,1.13-0.76,1.53-1.25c0.4-0.49,0.72-1.02,0.95-1.58c0.23-0.56,0.39-1.13,0.48-1.7s0.14-1.1,0.14-1.58
				c0-0.71-0.06-1.34-0.19-1.89c-0.13-0.55-0.25-0.95-0.36-1.2c-0.16-0.37-0.36-0.74-0.6-1.13c-0.24-0.39-0.55-0.75-0.93-1.08
				c-0.38-0.33-0.83-0.6-1.36-0.82c-0.53-0.22-1.15-0.33-1.86-0.33c-0.87,0-1.6,0.14-2.18,0.41c-0.58,0.27-1.06,0.56-1.42,0.86
				c-0.55,0.46-1.05,1.12-1.5,1.97C144.27,53.85,144.02,54.9,143.98,56.14"/>
			
				<rect x="161.57" y="39.23" style="clip-path:url(#SVGID_00000055678088865020491750000011093493299955083145_);fill:#005DA9;" width="3.26" height="26.01"/>
			
				<rect x="168.72" y="39.23" style="clip-path:url(#SVGID_00000055678088865020491750000011093493299955083145_);fill:#005DA9;" width="3.26" height="26.01"/>
			<path style="clip-path:url(#SVGID_00000055678088865020491750000011093493299955083145_);fill:#005DA9;" d="M178.1,57.24
				c0.05,0.18,0.1,0.51,0.17,0.98c0.07,0.47,0.24,0.97,0.52,1.5c0.18,0.37,0.43,0.73,0.74,1.1c0.31,0.37,0.68,0.7,1.11,1
				c0.44,0.3,0.94,0.55,1.51,0.74c0.57,0.2,1.22,0.3,1.96,0.33c0.87,0.05,1.65-0.05,2.35-0.27c0.7-0.23,1.2-0.4,1.49-0.52
				c0.3-0.14,0.55-0.27,0.77-0.4c0.22-0.13,0.46-0.27,0.74-0.43v3.09c-0.59,0.25-1.3,0.5-2.13,0.76c-0.82,0.25-1.89,0.38-3.19,0.38
				c-0.12,0-0.38-0.01-0.81-0.02c-0.42-0.01-0.93-0.07-1.51-0.19c-0.58-0.11-1.2-0.3-1.87-0.55c-0.66-0.25-1.29-0.61-1.89-1.07
				c-0.6-0.46-1.06-0.92-1.39-1.39c-0.33-0.47-0.55-0.79-0.64-0.98c-0.27-0.46-0.54-1.08-0.79-1.87c-0.25-0.79-0.4-1.76-0.45-2.9
				c-0.02-1.05,0.08-2.02,0.31-2.89c0.23-0.87,0.54-1.65,0.93-2.34c0.39-0.69,0.84-1.28,1.34-1.77c0.5-0.49,1.03-0.9,1.58-1.22
				c0.39-0.25,0.72-0.42,1-0.52c0.27-0.09,0.5-0.16,0.69-0.21c0.23-0.07,0.57-0.15,1.03-0.24c0.46-0.09,1-0.14,1.62-0.14
				c1.4,0,2.57,0.25,3.5,0.76c0.94,0.5,1.67,1.07,2.2,1.68c0.37,0.46,0.66,0.95,0.89,1.48c0.23,0.53,0.41,1.06,0.55,1.6
				c0.14,0.54,0.24,1.07,0.29,1.6c0.06,0.53,0.1,1.01,0.12,1.44c0.02,0.27,0.03,0.53,0.03,0.76c0,0.21,0.01,0.45,0.03,0.72H178.1z
				 M187.55,54.73c-0.07-0.6-0.17-1.19-0.31-1.77c-0.14-0.59-0.44-1.18-0.89-1.77c-0.27-0.39-0.67-0.74-1.2-1.07
				c-0.52-0.32-1.22-0.47-2.09-0.45c-1,0.02-1.91,0.33-2.7,0.93c-0.8,0.6-1.42,1.45-1.85,2.58c-0.12,0.32-0.19,0.59-0.24,0.81
				c-0.05,0.22-0.1,0.47-0.17,0.74H187.55z"/>
			<path style="clip-path:url(#SVGID_00000055678088865020491750000011093493299955083145_);fill:#005DA9;" d="M196.93,50.43
				c0.18-0.32,0.35-0.6,0.5-0.82c0.15-0.23,0.28-0.4,0.4-0.52c0.66-0.76,1.39-1.25,2.16-1.48c0.78-0.23,1.5-0.34,2.16-0.34
				c0.41,0,0.82,0.02,1.24,0.07c0.41,0.05,0.66,0.07,0.76,0.07v3.13c-0.46-0.14-0.83-0.24-1.12-0.31c-0.29-0.07-0.66-0.1-1.12-0.1
				c-0.21,0-0.57,0.04-1.1,0.12c-0.53,0.08-1.09,0.37-1.68,0.88c-0.46,0.39-0.81,0.81-1.07,1.25c-0.25,0.45-0.44,0.91-0.57,1.39
				c-0.13,0.48-0.21,0.96-0.26,1.44c-0.05,0.48-0.08,0.93-0.1,1.34v8.69h-3.37V60.4c0-1.26,0-2.41,0.02-3.45
				c0.01-1.04,0.02-2.2,0.02-3.49c0-0.55-0.01-1.07-0.02-1.55c-0.01-0.48-0.02-0.96-0.03-1.43c-0.01-0.47-0.03-0.95-0.05-1.44
				c-0.02-0.49-0.05-1.01-0.07-1.56h3.12L196.93,50.43z"/>
			<path style="clip-path:url(#SVGID_00000055678088865020491750000011093493299955083145_);fill:#005DA9;" d="M208.99,50.02
				c0.27-0.32,0.48-0.55,0.62-0.69l0.48-0.48c0.5-0.44,1.15-0.82,1.94-1.15c0.79-0.33,1.79-0.5,3.01-0.5c1.01,0,1.82,0.13,2.44,0.38
				c0.62,0.25,1.15,0.57,1.62,0.96c0.76,0.66,1.27,1.4,1.55,2.2c0.27,0.8,0.46,1.56,0.55,2.27c0.02,0.18,0.04,0.35,0.05,0.5
				c0.01,0.15,0.02,0.33,0.02,0.53c0.02,0.27,0.03,0.53,0.03,0.76c0,0.23,0.01,0.49,0.03,0.79v9.66h-3.23v-9.86
				c0-0.46-0.01-0.92-0.03-1.37c-0.02-0.46-0.13-0.92-0.31-1.37c-0.07-0.23-0.18-0.5-0.34-0.81c-0.16-0.31-0.38-0.6-0.65-0.88
				c-0.27-0.27-0.63-0.51-1.05-0.7c-0.42-0.19-0.92-0.29-1.49-0.29c-0.14,0-0.37,0.02-0.69,0.05c-0.32,0.03-0.68,0.14-1.07,0.31
				c-0.39,0.17-0.8,0.42-1.22,0.76c-0.42,0.33-0.81,0.78-1.15,1.36c-0.39,0.66-0.63,1.39-0.72,2.16c-0.09,0.78-0.15,1.51-0.17,2.2
				v8.45h-3.3V47.48h3.09V50.02z"/>
			<path style="clip-path:url(#SVGID_00000055678088865020491750000011093493299955083145_);fill:#005DA9;" d="M225.93,48.65
				c0.23-0.11,0.43-0.22,0.6-0.31c0.17-0.09,0.36-0.19,0.57-0.31c0.48-0.23,0.97-0.4,1.46-0.52c0.49-0.11,0.95-0.2,1.37-0.26
				c0.42-0.06,0.79-0.09,1.1-0.1c0.31-0.01,0.53-0.02,0.67-0.02c1.44,0,2.67,0.25,3.69,0.74c1.02,0.49,1.77,1.13,2.25,1.91
				c0.25,0.37,0.43,0.77,0.55,1.22c0.11,0.45,0.24,1.06,0.38,1.84v12.4h-2.82v-2.82c-0.34,0.39-0.66,0.73-0.95,1.01
				c-0.29,0.29-0.62,0.58-1.01,0.88c-0.46,0.32-1.05,0.61-1.77,0.86c-0.72,0.25-1.61,0.36-2.66,0.31c-0.71-0.05-1.39-0.16-2.05-0.34
				c-0.65-0.18-1.24-0.48-1.77-0.89c-0.46-0.39-0.84-0.85-1.13-1.39c-0.3-0.54-0.5-1.12-0.62-1.74c-0.07-0.34-0.1-0.68-0.1-1
				c0-0.71,0.11-1.33,0.33-1.86c0.22-0.53,0.49-0.98,0.81-1.36c0.32-0.38,0.68-0.69,1.08-0.94c0.4-0.25,0.77-0.46,1.12-0.62
				c0.92-0.44,1.88-0.7,2.9-0.79c1.02-0.09,1.99-0.14,2.9-0.14c0.46,0,0.9,0,1.34,0.02c0.44,0.01,0.87,0.03,1.31,0.05
				c-0.02-0.37-0.05-0.76-0.09-1.17c-0.03-0.41-0.12-0.8-0.26-1.17c-0.23-0.6-0.68-1.15-1.36-1.65c-0.68-0.5-1.58-0.76-2.7-0.76
				c-0.57,0-1.13,0.07-1.67,0.21c-0.54,0.14-1.04,0.3-1.49,0.48c-0.46,0.18-0.86,0.37-1.2,0.57c-0.34,0.19-0.61,0.34-0.79,0.43
				V48.65z M235.55,56.76c-0.82-0.07-1.65-0.1-2.47-0.1c-0.57,0-1.05,0.02-1.44,0.07c-0.39,0.05-0.71,0.09-0.96,0.14
				c-0.41,0.09-0.83,0.22-1.26,0.4c-0.42,0.17-0.8,0.39-1.13,0.65c-0.33,0.27-0.61,0.59-0.82,0.96c-0.22,0.38-0.33,0.82-0.33,1.32
				c0,0.53,0.11,0.97,0.34,1.34c0.23,0.37,0.52,0.66,0.86,0.88c0.34,0.22,0.72,0.38,1.13,0.48c0.41,0.1,0.81,0.15,1.2,0.15
				c0.66,0,1.33-0.14,1.99-0.41c0.66-0.27,1.26-0.77,1.79-1.48c0.27-0.34,0.47-0.65,0.58-0.93c0.11-0.27,0.19-0.47,0.24-0.58
				c0.09-0.27,0.16-0.6,0.21-0.96c0.05-0.37,0.07-0.85,0.07-1.44V56.76z"/>
			
				<rect x="242.42" y="39.23" style="clip-path:url(#SVGID_00000055678088865020491750000011093493299955083145_);fill:#005DA9;" width="3.26" height="26.01"/>
			<path style="clip-path:url(#SVGID_00000055678088865020491750000011093493299955083145_);fill:#005DA9;" d="M252.8,39.23v11.13
				c0.05-0.09,0.19-0.3,0.43-0.62c0.24-0.32,0.52-0.63,0.84-0.93c0.44-0.39,1.07-0.76,1.91-1.12c0.83-0.35,1.81-0.53,2.94-0.53
				c0.85,0,1.57,0.09,2.18,0.27c0.61,0.18,1.07,0.37,1.39,0.55c0.53,0.3,1.07,0.72,1.61,1.27c0.55,0.55,1.04,1.34,1.48,2.37
				c0.23,0.53,0.41,1.06,0.53,1.6c0.13,0.54,0.22,1.03,0.27,1.48c0.06,0.45,0.09,0.84,0.1,1.19c0.01,0.34,0.02,0.58,0.02,0.72
				c0,1.03-0.13,2.1-0.4,3.2c-0.26,1.1-0.83,2.14-1.7,3.13c-0.3,0.34-0.63,0.66-1,0.96c-0.37,0.3-0.78,0.57-1.24,0.81
				s-0.99,0.43-1.58,0.57c-0.6,0.14-1.26,0.22-1.99,0.24c-0.11,0-0.34-0.01-0.67-0.02c-0.33-0.01-0.72-0.06-1.17-0.14
				c-0.45-0.08-0.92-0.23-1.42-0.45c-0.5-0.22-1-0.53-1.48-0.95c-0.27-0.23-0.52-0.47-0.74-0.72c-0.22-0.25-0.43-0.52-0.63-0.79
				v2.78h-2.96V39.23H252.8z M252.83,55.9c-0.02,0.11-0.03,0.23-0.03,0.34v0.31c0,1.08,0.15,1.97,0.45,2.66
				c0.3,0.7,0.64,1.28,1.03,1.73c0.48,0.53,0.94,0.9,1.37,1.12c0.44,0.22,0.76,0.36,0.96,0.43c0.32,0.11,0.62,0.19,0.91,0.22
				c0.29,0.03,0.49,0.05,0.6,0.05c0.66,0,1.24-0.12,1.72-0.36c0.48-0.24,0.85-0.47,1.1-0.67c0.44-0.37,0.8-0.78,1.1-1.26
				c0.3-0.47,0.53-0.96,0.71-1.46c0.17-0.5,0.29-1,0.36-1.5c0.07-0.49,0.1-0.93,0.1-1.32c-0.05-1.15-0.27-2.21-0.69-3.2
				c-0.18-0.46-0.42-0.88-0.72-1.27c-0.3-0.39-0.65-0.73-1.07-1.03c-0.39-0.27-0.82-0.48-1.31-0.62c-0.48-0.14-0.96-0.19-1.44-0.17
				c-0.18,0-0.5,0.05-0.96,0.14s-0.95,0.3-1.48,0.62c-0.66,0.41-1.18,0.9-1.53,1.46c-0.36,0.56-0.63,1.11-0.81,1.63
				c-0.18,0.53-0.29,0.99-0.33,1.39C252.85,55.56,252.83,55.81,252.83,55.9"/>
		</g>
	</g>
</g>
</svg>
