<?xml version="1.0" encoding="UTF-8"?>
<svg id="Ebene_1" data-name="Ebene 1" xmlns="http://www.w3.org/2000/svg" viewBox="0 0 513.07 107.72">
  <defs>
    <style>
      .cls-1 {
        fill: #005ca9;
      }

      .cls-2 {
        fill: #ec6608;
      }
    </style>
  </defs>
  <path class="cls-1" d="M57.42,80.22l-8.09-36.27h-18.11s-4.56-19.5-4.56-19.5l39.38-.02,12.95,57.13.14-.03c.21-2.57,1.56-6.69,2.1-9.45.55-2.82,1.28-6.78,2.05-9.36.8-2.69,1.59-6.66,2.15-9.41.66-3.22,1.43-6.15,2.08-9.33,1.16-5.71,3.29-12.73,7.22-15.73,4.01-3.06,11.91-3.82,18.94-3.82h18.42c-.03,1.55-1.81,8.41-2.27,10.29-.82,3.36-1.62,6.83-2.45,10.11-.87,3.43-1.62,6.75-2.48,10.09-.56,2.19-.82,2.67-2.53,3.82-.97.65-3.28,1.39-4.81,1.39h-1.44c-2.2,0-5.9-1.65-5.9-3.9v-.43l1.26-9.24-.1-.74c0-1.02-1.15-2.17-2.16-2.17h-.14c-3.33,0-3.33,4.87-4.03,7.66-.36,1.42-.7,3.34-.88,4.9-.15,1.36-.87,3.37-.99,4.79-.11,1.37-.63,3.37-.93,4.85-.32,1.59-.56,3.41-.92,4.86-.37,1.49-.49,3.49-.94,4.84-.18.54-.82,4.34-.82,4.96h58.72V0H.14l-.14,80.51h57.57l-.14-.29h0Z"/>
  <path class="cls-2" d="M59.29,88.93L0,88.79v18.93h63.46l-4.17-18.79h0ZM158.31,107.72v-18.79h-60.01c-.66,0-1.06,3.82-1.19,4.59-.24,1.45-.73,3.32-.94,4.69-.26,1.64-.69,3.3-.88,4.75-.2,1.51-.85,3.45-.88,4.75h63.9Z"/>
  <path class="cls-1" d="M198.32,64.77v40.06h23.97v-6.75h-15.73v-10.44h14.26v-6.58h-14.26v-9.53h15.56v-6.75h-23.8ZM227.52,75.1v29.74h7.72v-29.74h-7.72ZM227.52,62.5v7.15h7.72v-7.15h-7.72ZM259.26,61.82c-.83-.15-1.55-.26-2.16-.34-.61-.08-1.31-.11-2.1-.11h-.79c-.38,0-.82.03-1.31.09-.49.06-1.02.16-1.59.31-.57.15-1.14.36-1.7.62-.76.38-1.55.95-2.38,1.7-.83.76-1.52,1.93-2.05,3.52-.38,1.14-.61,2.38-.68,3.75-.08,1.36-.11,2.61-.11,3.75h-5.91v5.79h5.91v23.95h7.67v-23.95h6.7v-5.79h-6.7c.04-1.55.12-2.84.26-3.86.13-1.02.54-1.85,1.22-2.5.45-.45.95-.75,1.48-.88.53-.13,1.04-.2,1.53-.2s.94.05,1.33.14c.4.09.69.16.88.2l.51-6.19h0ZM267.61,87.24c.04-.3.12-.87.26-1.7.13-.83.5-1.74,1.11-2.72.49-.72,1.03-1.28,1.62-1.67.59-.4,1.15-.68,1.7-.85.55-.17,1.03-.27,1.45-.31.42-.04.68-.06.79-.06.15,0,.41.02.77.06.36.04.77.13,1.22.28.45.15.93.39,1.42.71.49.32.97.79,1.42,1.39.61.79.98,1.6,1.14,2.41.15.81.26,1.64.34,2.47h-13.23ZM287.89,92.63c.04-.53.06-1.02.06-1.48v-1.53c0-2-.25-3.92-.74-5.76-.49-1.83-1.28-3.44-2.36-4.82-1.08-1.38-2.46-2.49-4.15-3.32-1.68-.83-3.74-1.25-6.16-1.25-2.65,0-4.85.47-6.59,1.42-1.74.95-3.16,2.08-4.26,3.4-.23.23-.43.46-.6.71-.17.25-.35.5-.54.77-.04.08-.15.3-.34.68-.19.38-.38.74-.57,1.08-.34.76-.68,1.78-1.02,3.06-.34,1.29-.51,2.86-.51,4.71,0,2.01.25,3.78.74,5.33.49,1.55,1.14,2.9,1.96,4.06.81,1.15,1.76,2.12,2.84,2.89,1.08.78,2.2,1.39,3.38,1.84.72.27,1.44.47,2.16.62.72.15,1.37.26,1.96.31.59.06,1.11.09,1.56.09h1.02c2.5,0,4.55-.25,6.16-.74,1.61-.49,2.98-.98,4.12-1.48l-.11-6.64c-.11.08-.41.27-.88.57-.47.3-.94.55-1.39.74-1.14.57-2.3.98-3.49,1.25-1.19.27-2.36.4-3.49.4-.64,0-1.33-.06-2.04-.17-.72-.11-1.43-.31-2.13-.6-.7-.28-1.38-.68-2.04-1.19-.66-.51-1.24-1.18-1.73-2.01-.38-.57-.64-1.18-.8-1.84-.15-.66-.25-1.03-.28-1.11h20.27ZM292.55,61.48v43.36h7.72v-43.36h-7.72ZM315.38,64.77h-8.18v40.06h23.68v-6.75h-15.5v-33.31h0ZM351.52,92.24c-.02.53-.07,1-.14,1.42-.23,1.36-.63,2.47-1.22,3.32-.58.85-1.23,1.51-1.95,1.99-.72.47-1.42.79-2.12.96-.7.17-1.27.26-1.72.26-.9,0-1.65-.13-2.23-.4-.58-.26-1.05-.6-1.41-1.02-.36-.42-.61-.86-.76-1.33-.15-.47-.23-.92-.23-1.33,0-.72.15-1.36.45-1.93.64-1.14,1.7-1.9,3.16-2.3,1.47-.4,3.22-.6,5.26-.6.53,0,1.03,0,1.5.03.47.02.95.05,1.44.09,0,.04-.01.32-.03.85h0ZM358.6,104.83c-.08-1.78-.13-3.39-.17-4.85-.04-1.46-.06-3.07-.06-4.85v-7.04c0-.98-.03-2.16-.09-3.52-.06-1.36-.27-2.53-.65-3.52-.3-.95-.71-1.72-1.22-2.33-.51-.6-.96-1.08-1.33-1.42-.72-.6-1.48-1.1-2.3-1.48-.81-.38-1.63-.67-2.44-.88-.81-.21-1.64-.33-2.47-.37-.83-.04-1.61-.06-2.33-.06-1.25,0-2.37.07-3.38.2-1,.13-1.9.29-2.7.48-.79.19-1.52.4-2.18.62-.66.23-1.3.45-1.9.68l.23,6.7c.72-.57,1.32-.97,1.81-1.22.49-.25.89-.44,1.19-.6.6-.26,1.41-.55,2.41-.85,1-.3,2.22-.47,3.66-.51h.74c1.28.08,2.3.3,3.06.68.76.38,1.36.89,1.82,1.53.49.68.77,1.41.85,2.18.07.78.15,1.5.23,2.18-.76-.08-1.43-.12-2.02-.14-.59-.02-1.26-.03-2.02-.03h-.34c-2.95.04-5.45.32-7.5.85-2.04.53-3.67,1.34-4.88,2.44-.76.64-1.41,1.49-1.96,2.53-.55,1.04-.84,2.36-.88,3.94,0,.91.13,1.89.4,2.95.26,1.06.77,2.05,1.53,2.98.76.93,1.79,1.69,3.09,2.3,1.31.61,2.98.91,5.03.91,1.1,0,2.2-.11,3.32-.31,1.12-.21,2.22-.63,3.32-1.28.99-.6,1.71-1.2,2.19-1.79.47-.59.82-1.09,1.05-1.5v4.37h6.87ZM392.67,104.83v-15.21c-.04-1.36-.08-2.59-.11-3.69-.04-1.1-.11-2.08-.23-2.95-.11-.87-.29-1.66-.54-2.38-.25-.72-.6-1.38-1.05-1.99-.53-.76-1.01-1.31-1.45-1.67-.44-.36-.8-.63-1.11-.82-.61-.38-1.37-.72-2.3-1.02-.93-.3-2.11-.45-3.55-.45-1.1,0-2.14.09-3.12.28-.98.19-2.04.61-3.18,1.25-.19.11-.57.34-1.14.68-.57.34-1.14.83-1.7,1.48-.42.45-.8.91-1.14,1.36v-4.6h-7.44c.08,1.32.13,2.52.17,3.58.04,1.06.06,2.25.06,3.58v22.59h7.78v-13.9c0-.87.04-1.71.11-2.53.08-.81.21-1.6.4-2.36.19-.76.48-1.46.88-2.1.4-.64.94-1.23,1.62-1.76.83-.64,1.62-1.03,2.36-1.16.74-.13,1.24-.18,1.51-.14.53,0,.99.06,1.39.17.4.11.69.21.88.28.53.27.96.56,1.31.88.34.32.64.73.91,1.22.42.83.68,1.77.79,2.81.11,1.04.19,2.45.23,4.23v14.36h7.67ZM414.36,81.4c.68.3,1.19.61,1.53.91.64.53,1.17,1.13,1.59,1.79.42.66.74,1.35.97,2.07.23.72.39,1.43.48,2.13.09.7.14,1.33.14,1.9,0,.27-.02.76-.06,1.48-.04.72-.21,1.51-.51,2.38-.38,1.25-.84,2.2-1.39,2.87-.55.66-1.15,1.18-1.79,1.56-.64.42-1.27.66-1.87.74-.61.08-1.02.11-1.25.11-.64,0-1.29-.1-1.93-.31-.64-.21-1.29-.58-1.93-1.11-.49-.42-.85-.79-1.08-1.13-.23-.34-.4-.6-.51-.79-.34-.6-.6-1.23-.77-1.87-.17-.64-.29-1.25-.37-1.82-.08-.57-.11-1.06-.11-1.48v-.85c-.04-1.59.11-2.93.45-4.03.34-1.1.78-1.99,1.31-2.67.19-.3.48-.63.88-.99.4-.36.92-.67,1.56-.94.68-.26,1.46-.4,2.33-.4s1.65.15,2.33.45h0ZM419.31,61.48v19.29c-.3-.64-.54-1.13-.71-1.45-.17-.32-.37-.65-.6-.99-1.1-1.51-2.36-2.51-3.78-2.98-1.42-.47-2.79-.71-4.12-.71-.3,0-.79.02-1.45.06-.66.04-1.39.17-2.19.4-.42.11-1.11.39-2.07.82-.97.44-2,1.22-3.1,2.36-1.1,1.21-2.02,2.77-2.75,4.68-.74,1.91-1.11,4.28-1.11,7.12,0,3.75.68,6.79,2.04,9.14,1.36,2.35,3.12,4.03,5.28,5.05,1.1.53,2.12.84,3.07.94.95.09,1.61.14,1.99.14,2.05,0,3.76-.37,5.14-1.11,1.38-.74,2.45-1.6,3.21-2.58.38-.45.64-.89.8-1.3.15-.42.32-.85.51-1.31v5.79h7.33v-43.36h-7.5ZM454.57,87.24c.04-.3.12-.87.26-1.7.13-.83.5-1.74,1.11-2.72.49-.72,1.03-1.28,1.62-1.67.59-.4,1.15-.68,1.7-.85.55-.17,1.03-.27,1.45-.31.42-.04.68-.06.8-.06.15,0,.41.02.77.06.36.04.77.13,1.22.28.45.15.93.39,1.42.71.49.32.96.79,1.42,1.39.61.79.99,1.6,1.14,2.41.15.81.26,1.64.34,2.47h-13.23ZM474.85,92.63c.04-.53.06-1.02.06-1.48v-1.53c0-2-.25-3.92-.74-5.76-.49-1.83-1.28-3.44-2.36-4.82-1.08-1.38-2.46-2.49-4.15-3.32-1.68-.83-3.74-1.25-6.16-1.25-2.65,0-4.85.47-6.59,1.42-1.74.95-3.16,2.08-4.26,3.4-.23.23-.43.46-.6.71-.17.25-.35.5-.54.77-.04.08-.15.3-.34.68-.19.38-.38.74-.57,1.08-.34.76-.68,1.78-1.02,3.06-.34,1.29-.51,2.86-.51,4.71,0,2.01.24,3.78.74,5.33.49,1.55,1.14,2.9,1.96,4.06.81,1.15,1.76,2.12,2.84,2.89,1.08.78,2.21,1.39,3.38,1.84.72.27,1.44.47,2.16.62.72.15,1.37.26,1.96.31.59.06,1.11.09,1.56.09h1.02c2.5,0,4.55-.25,6.16-.74,1.61-.49,2.98-.98,4.12-1.48l-.11-6.64c-.11.08-.41.27-.88.57-.47.3-.94.55-1.39.74-1.14.57-2.3.98-3.49,1.25-1.19.27-2.36.4-3.49.4-.64,0-1.32-.06-2.04-.17-.72-.11-1.43-.31-2.13-.6-.7-.28-1.38-.68-2.04-1.19-.66-.51-1.24-1.18-1.73-2.01-.38-.57-.64-1.18-.8-1.84-.15-.66-.25-1.03-.28-1.11h20.28ZM511.82,65.79c-.68-.19-1.37-.39-2.07-.6-.7-.21-1.48-.39-2.33-.54-.85-.15-1.81-.28-2.87-.4-1.06-.11-2.27-.17-3.64-.17-.26,0-.67,0-1.22.03-.55.02-1.18.06-1.9.11-.72.06-1.51.14-2.36.26-.85.11-1.71.28-2.59.51-1.25.34-2.59.84-4.03,1.5-1.44.66-2.76,1.52-3.98,2.58-1.36,1.14-2.49,2.36-3.38,3.69-.89,1.32-1.58,2.68-2.07,4.06-.49,1.38-.83,2.77-1.02,4.17-.19,1.4-.28,2.74-.28,4.03.04,3.44.56,6.35,1.56,8.71,1,2.36,2.13,4.23,3.38,5.59,1.59,1.7,3.7,3.14,6.33,4.31,2.63,1.17,5.95,1.76,9.97,1.76,2.23,0,4.21-.13,5.94-.4,1.72-.26,3-.49,3.83-.68.49-.11,1.02-.25,1.59-.4.57-.15,1.36-.42,2.39-.79v-21.17h-15.9v6.3h8.41v9.87c-.53.15-1.21.32-2.04.51-.83.19-1.86.28-3.07.28-.27,0-.82-.02-1.65-.06-.83-.04-1.7-.19-2.61-.45-.49-.11-1.13-.33-1.9-.65-.78-.32-1.58-.79-2.41-1.42-.83-.62-1.64-1.43-2.41-2.41-.78-.98-1.41-2.19-1.9-3.63-.42-1.21-.66-2.32-.74-3.32-.08-1-.11-1.69-.11-2.07-.04-2.72.36-4.99,1.19-6.81.83-1.82,1.91-3.29,3.24-4.43.38-.3.79-.59,1.22-.85.43-.26.69-.42.77-.45.8-.45,1.62-.8,2.47-1.05.85-.25,1.64-.43,2.36-.54.72-.11,1.34-.17,1.87-.17h1.14c2.5,0,4.56.26,6.19.77,1.63.51,2.99,1.03,4.09,1.56l.57-7.15h0Z"/>
  <path class="cls-1" d="M201.16,3.29h-8.58l13.86,40.07h9.88l13.69-40.07h-7.95l-7.16,22.3c-.3.98-.59,1.9-.85,2.75-.27.85-.52,1.69-.77,2.53-.25.83-.5,1.67-.77,2.53-.27.85-.55,1.77-.85,2.75-.3-.98-.57-1.88-.79-2.7-.23-.81-.49-1.71-.79-2.7-.3-1.02-.59-1.94-.85-2.75-.27-.81-.57-1.75-.91-2.81l-7.16-21.91h0ZM241.26,9.53h3.86c.26,0,.49,0,.68.03.19.02.43.03.74.03,1.25.08,2.27.28,3.07.62.79.34,1.44.85,1.93,1.53.19.3.38.7.57,1.19.19.49.28,1.08.28,1.76.04.72-.05,1.34-.26,1.87-.21.53-.41.95-.6,1.25-.45.64-.96,1.14-1.51,1.5-.55.36-1.12.62-1.7.79-.59.17-1.17.27-1.76.28-.59.02-1.13.03-1.62.03h-1.87c-.57,0-1.17-.02-1.82-.06v-10.84h0ZM257.33,28.37c-.19-.38-.39-.81-.6-1.31-.21-.49-.47-.96-.79-1.42-.32-.45-.68-.87-1.08-1.25-.4-.38-.84-.66-1.34-.85-.3-.08-.61-.13-.91-.17-.3-.04-.49-.08-.57-.11.64-.08,1.28-.17,1.9-.28.62-.11,1.26-.32,1.9-.62.3-.15.54-.28.71-.4.17-.11.35-.23.54-.34.98-.72,1.85-1.7,2.58-2.95.74-1.25,1.11-2.84,1.11-4.77,0-.15-.01-.41-.03-.77-.02-.36-.07-.78-.14-1.28-.08-.49-.2-1.01-.37-1.56-.17-.55-.41-1.11-.71-1.67-.19-.3-.39-.61-.6-.94-.21-.32-.44-.61-.71-.88-.83-.87-1.8-1.54-2.9-2.01-1.1-.47-2.23-.82-3.38-1.05s-2.29-.36-3.41-.4c-1.12-.04-2.11-.06-2.98-.06h-12.32v40.07h8.12v-16.68c.98,0,1.85,0,2.61.03.76.02,1.32.07,1.7.14.3.08.58.16.82.26.25.09.52.26.82.48.76.57,1.34,1.31,1.76,2.21.42.91.93,2.08,1.53,3.52l3.86,10.04h8.97l-6.13-14.98h0ZM290.9,25.42h3.79c.79,0,1.57.04,2.35.11.77.08,1.56.28,2.35.62.79.34,1.41.78,1.86,1.31.45.53.78,1.05.99,1.56.21.51.33.98.37,1.42.04.44.06.73.06.88,0,.61-.07,1.14-.2,1.62-.13.47-.27.82-.42,1.05-.19.3-.42.64-.68,1.02-.27.38-.77.76-1.53,1.13-.94.53-1.96.84-3.05.94-1.09.09-2.13.14-3.11.14h-.45c-.41,0-.8,0-1.16-.03-.36-.02-.74-.03-1.16-.03v-11.75h0ZM290.9,9.36c.64,0,1.2,0,1.67-.03.47-.02,1.01-.03,1.61-.03,1.69,0,3.08.2,4.15.6,1.07.4,1.89,1.09,2.46,2.08.11.19.23.49.37.91.13.42.2.91.2,1.48,0,.46-.08.98-.23,1.57-.15.59-.43,1.11-.85,1.57-.75.88-1.69,1.43-2.8,1.66-1.11.23-2.53.34-4.26.34-.41,0-.8,0-1.16-.03-.36-.02-.74-.03-1.16-.03v-10.1h0ZM282.95,3.29v40.07h12.78c.95,0,1.99-.03,3.12-.09,1.14-.06,2.28-.23,3.44-.51,1.15-.28,2.28-.73,3.38-1.33,1.1-.6,2.1-1.48,3.01-2.61.53-.64,1.03-1.52,1.5-2.64.47-1.12.71-2.47.71-4.06,0-.15-.01-.45-.03-.91-.02-.45-.1-.98-.25-1.59-.15-.6-.4-1.27-.74-1.99-.34-.72-.81-1.4-1.42-2.04-.38-.42-.77-.76-1.16-1.02-.4-.26-.63-.43-.71-.51-1.02-.64-1.95-1.06-2.78-1.25-.83-.19-1.76-.32-2.78-.4.42-.08.74-.12.97-.14.23-.02.55-.1.97-.26.45-.11.89-.27,1.31-.48.42-.21.72-.35.91-.43.3-.19.57-.35.8-.48.23-.13.49-.35.8-.65,1.1-.98,1.82-2.07,2.16-3.26.34-1.19.51-2.3.51-3.32,0-1.59-.25-2.91-.74-3.97-.49-1.06-1.06-1.93-1.7-2.61-.76-.83-1.52-1.44-2.27-1.82-.76-.38-1.25-.6-1.48-.68-1.29-.53-2.63-.83-4.03-.91-1.4-.08-2.76-.11-4.09-.11h-12.15ZM333.18,30.76c-.02.53-.07,1-.14,1.42-.23,1.36-.63,2.47-1.22,3.32-.58.85-1.23,1.51-1.95,1.99-.72.47-1.42.79-2.12.96-.7.17-1.27.26-1.72.26-.9,0-1.65-.13-2.23-.4-.58-.26-1.05-.6-1.41-1.02-.36-.42-.61-.86-.76-1.33-.15-.47-.23-.92-.23-1.33,0-.72.15-1.36.45-1.93.64-1.13,1.69-1.9,3.16-2.3,1.47-.4,3.22-.6,5.26-.6.53,0,1.03,0,1.5.03.47.02.95.05,1.44.09,0,.04-.01.32-.03.85h0ZM340.25,43.36c-.08-1.78-.13-3.4-.17-4.85-.04-1.46-.06-3.07-.06-4.85v-7.04c0-.98-.03-2.16-.09-3.52-.06-1.36-.27-2.53-.65-3.52-.3-.95-.71-1.72-1.22-2.33-.51-.6-.96-1.08-1.33-1.42-.72-.6-1.48-1.1-2.3-1.48-.81-.38-1.62-.67-2.44-.88-.81-.21-1.64-.33-2.47-.37-.83-.04-1.61-.06-2.33-.06-1.25,0-2.37.07-3.38.2-1,.13-1.9.29-2.7.48-.79.19-1.52.4-2.18.62-.66.23-1.29.45-1.9.68l.23,6.7c.72-.57,1.32-.97,1.81-1.22.49-.25.89-.44,1.19-.6.6-.26,1.41-.55,2.41-.85,1-.3,2.22-.47,3.66-.51h.74c1.29.08,2.3.3,3.06.68.76.38,1.36.89,1.81,1.53.49.68.77,1.41.85,2.18.08.78.15,1.5.23,2.18-.76-.08-1.43-.12-2.02-.14-.59-.02-1.26-.03-2.02-.03h-.34c-2.95.04-5.45.32-7.5.85-2.05.53-3.67,1.34-4.88,2.44-.76.64-1.41,1.49-1.96,2.53-.55,1.04-.84,2.36-.88,3.94,0,.91.13,1.89.4,2.95.27,1.06.78,2.05,1.53,2.98.76.93,1.79,1.69,3.09,2.3,1.31.6,2.98.91,5.03.91,1.1,0,2.21-.1,3.32-.31,1.12-.21,2.22-.63,3.32-1.28.98-.6,1.71-1.2,2.19-1.79.47-.59.82-1.09,1.05-1.5v4.37h6.87ZM374.33,43.36v-15.21c-.04-1.36-.08-2.59-.11-3.69-.04-1.1-.11-2.08-.23-2.95-.11-.87-.29-1.66-.54-2.38-.25-.72-.6-1.38-1.05-1.99-.53-.76-1.01-1.31-1.45-1.67-.44-.36-.8-.63-1.11-.82-.61-.38-1.37-.72-2.3-1.02-.93-.3-2.11-.45-3.55-.45-1.1,0-2.14.09-3.12.28-.99.19-2.04.61-3.18,1.25-.19.11-.57.34-1.14.68-.57.34-1.14.83-1.7,1.48-.42.45-.8.91-1.14,1.36v-4.6h-7.44c.08,1.32.13,2.52.17,3.58.04,1.06.06,2.25.06,3.58v22.59h7.78v-13.9c0-.87.04-1.71.11-2.53.08-.81.21-1.6.4-2.36.19-.76.48-1.46.88-2.1.4-.64.94-1.23,1.62-1.76.83-.64,1.62-1.03,2.36-1.16.74-.13,1.24-.18,1.51-.14.53,0,.99.06,1.39.17.4.11.69.21.88.28.53.27.96.56,1.31.88.34.32.64.73.91,1.22.42.83.68,1.77.8,2.81.11,1.04.19,2.45.23,4.23v14.36h7.67ZM388.52,0h-7.67v43.36h7.67v-14.75c.64,1.1,1.23,2.07,1.76,2.92.53.85,1.17,1.79,1.93,2.81l6.53,9.02h9.54l-12.49-16.63,11.08-13.11h-8.92l-6.7,8.34c-.53.64-.99,1.24-1.39,1.79-.4.55-.84,1.18-1.33,1.9V0h0Z"/>
</svg>